<?xml version="1.0" encoding="utf-8"?><!-- Generator: Adobe Illustrator 17.1.0, SVG Export Plug-In . SVG Version: 6.00 Build 0)  --><!DOCTYPE svg PUBLIC "-//W3C//DTD SVG 1.0//EN" "http://www.w3.org/TR/2001/REC-SVG-20010904/DTD/svg10.dtd"><svg xmlns="http://www.w3.org/2000/svg" xmlns:xlink="http://www.w3.org/1999/xlink" version="1.0" viewBox="0 0 128 128" preserveAspectRatio="none"><style> svg * { background-size: cover; background-repeat: no-repeat; } @media all and (max-width: 32px) { #group_1 { opacity: 1; } #group_2, #group_3 { opacity: 0; } } @media all and (min-width: 33px) and (max-width: 127px) { #group_2 { opacity: 1; } #group_1, #group_3 { opacity: 0; } } @media all and (min-width: 128px) { #group_3 { opacity: 1; } #group_1, #group_2 { opacity: 0; } } </style><g id="group_3"><path d="M119,54v20c0,1.1-0.9,2-2,2H76v41c0,1.1-0.9,2-2,2H54c-1.1,0-2-0.9-2-2V76H11c-1.1,0-2-0.9-2-2V54c0-1.1,0.9-2,2-2h41V11c0-1.1,0.9-2,2-2h20c1.1,0,2,0.9,2,2v41h41C118.1,52,119,52.9,119,54z"></path></g><g transform="scale(8)" id="group_1"><path d="M15,10h-5v5H6v-5H1V6h5V1h4v5h5V10z"></path></g><g transform="scale(4)" id="group_2"><path d="M30,14v4c0,0.6-0.4,1-1,1H19v10c0,0.6-0.4,1-1,1h-4c-0.6,0-1-0.4-1-1V19H3c-0.6,0-1-0.4-1-1v-4c0-0.6,0.4-1,1-1h10V3c0-0.6,0.4-1,1-1h4c0.6,0,1,0.4,1,1v10h10C29.6,13,30,13.4,30,14z"></path></g></svg>