<?xml version="1.0" encoding="utf-8"?>
<!-- Generator: Adobe Illustrator 18.1.1, SVG Export Plug-In . SVG Version: 6.00 Build 0)  -->
<svg version="1.1" id="Layer_1" xmlns="http://www.w3.org/2000/svg" xmlns:xlink="http://www.w3.org/1999/xlink" x="0px" y="0px"
	 viewBox="0 0 32 32" enable-background="new 0 0 32 32" xml:space="preserve">
<path d="M30,14v4c0,0.6-0.4,1-1,1H19v10c0,0.6-0.4,1-1,1h-4c-0.6,0-1-0.4-1-1V19H3c-0.6,0-1-0.4-1-1v-4c0-0.6,0.4-1,1-1h10V3
	c0-0.6,0.4-1,1-1h4c0.6,0,1,0.4,1,1v10h10C29.6,13,30,13.4,30,14z"/>
</svg>
