<?xml version="1.0" encoding="utf-8"?>
<!-- Generator: Adobe Illustrator 18.1.1, SVG Export Plug-In . SVG Version: 6.00 Build 0)  -->
<svg version="1.1" id="Layer_1" xmlns="http://www.w3.org/2000/svg" xmlns:xlink="http://www.w3.org/1999/xlink" x="0px" y="0px"
	 viewBox="0 0 128 128" enable-background="new 0 0 128 128" xml:space="preserve">
<path d="M119,54v20c0,1.1-0.9,2-2,2H76v41c0,1.1-0.9,2-2,2H54c-1.1,0-2-0.9-2-2V76H11c-1.1,0-2-0.9-2-2V54c0-1.1,0.9-2,2-2h41V11
	c0-1.1,0.9-2,2-2h20c1.1,0,2,0.9,2,2v41h41C118.1,52,119,52.9,119,54z"/>
</svg>
