<?xml version="1.0" encoding="utf-8"?><!-- Generator: Adobe Illustrator 17.1.0, SVG Export Plug-In . SVG Version: 6.00 Build 0)  --><!DOCTYPE svg PUBLIC "-//W3C//DTD SVG 1.0//EN" "http://www.w3.org/TR/2001/REC-SVG-20010904/DTD/svg10.dtd"><svg xmlns="http://www.w3.org/2000/svg" xmlns:xlink="http://www.w3.org/1999/xlink" version="1.0" viewBox="0 0 128 128" preserveAspectRatio="none"><style> svg * { background-size: cover; background-repeat: no-repeat; } @media all and (max-width: 32px) { #group_1 { opacity: 1; } #group_2, #group_3 { opacity: 0; } } @media all and (min-width: 33px) and (max-width: 127px) { #group_2 { opacity: 1; } #group_1, #group_3 { opacity: 0; } } @media all and (min-width: 128px) { #group_3 { opacity: 1; } #group_1, #group_2 { opacity: 0; } } </style><g id="group_3"><path d="M107.5,11.1c-0.3-0.2-0.7-0.2-1,0c0,0-1.9,1.1-3.5,1.8V7c0-0.5-0.3-0.9-0.8-1c-0.4-0.1-0.8,0.1-1.1,0.4c-0.1,0.1-0.7,0.7-3.2,1.6V4c0-0.5-0.3-0.9-0.8-1c-0.4-0.1-0.8,0.1-1.1,0.4C96.1,3.5,95.4,4.1,93,5V1c0-0.4-0.2-0.7-0.5-0.9c-0.3-0.2-0.7-0.1-1,0.1c-0.1,0-6.5,4.5-18.2,8.9C62.3,13.1,44.7,18,22,18c-0.6,0-1,0.4-1,1v103c0,0,0,0,0,0c0,4.6,3.2,5.9,5,6c26.2,0,81-0.1,81-0.1c0.6,0,1-0.4,1-1V12C108,11.6,107.8,11.3,107.5,11.1z M97.3,113.9c0.4-0.1,0.7-0.5,0.7-1V10.2c1.3-0.5,2.3-0.9,3-1.3v110.2c-4.5,0.6-25.8,3.3-53.1,4.4C74.6,120.5,97,114,97.3,113.9z M23,20c22.5-0.1,40.1-5,50.9-9.1C82.6,7.7,88.4,4.4,91,2.8v103.5c-5.2,1.9-40.2,14.4-68,14.7V20z M23.1,123c30.3-0.3,68.9-14.9,69.3-15.1c0.4-0.1,0.6-0.5,0.6-0.9V7.2c1.3-0.5,2.3-0.9,3-1.3v106.3C90.6,113.7,55.9,123,23.1,123C23.1,123,23.1,123,23.1,123z M106,126c-7.5,0-55.9,0.1-79.9,0.1c0,0-0.1,0-0.3,0c40.9-0.1,76-5,76.4-5c0.5-0.1,0.9-0.5,0.9-1V15c1-0.4,2.1-0.9,3-1.4V126z M33.7,46l-2.4,0.1V31.2l3.5-0.1c0.1,0.9,0.2,1.9,0.3,3.2l0.4,3.8l0.6-7l3.5-0.1v14.9l-2.4,0.1l0-10l-0.9,10.1l-1.7,0.1l-1-9.8L33.7,46z M43.1,42.9l1-0.1l0.1,2.7l2.8-0.2l-1.6-14.7l-3.9,0.3l-1.4,15l2.8-0.2L43.1,42.9z M43.6,33.9c0.1,2.5,0.3,4.5,0.4,6.2l-0.9,0.1C43.2,38.9,43.4,36.8,43.6,33.9z M47.5,42.2c-0.1-0.5-0.1-1.2-0.1-2.3v-4.4c0-1.4,0.1-2.4,0.2-3.1s0.4-1.3,0.9-1.9c0.5-0.6,1.2-1,2-1.1c0.8-0.1,1.5,0,2,0.4c0.5,0.4,0.9,0.9,1,1.5c0.2,0.6,0.2,1.5,0.2,2.7v0.6L51,35.1v-1.3c0-0.8,0-1.4-0.1-1.6C50.9,32,50.8,32,50.6,32c-0.2,0-0.3,0.1-0.3,0.3c-0.1,0.2-0.1,0.7-0.1,1.4v7c0,0.7,0,1.1,0.1,1.3c0.1,0.2,0.2,0.3,0.4,0.3c0.2,0,0.3-0.2,0.4-0.4c0.1-0.2,0.1-0.7,0.1-1.4v-1.7l-0.5,0.1v-2.2l3.2-0.5v7.9L52,44.2l-0.3-1c-0.2,0.5-0.4,0.9-0.7,1.1c-0.3,0.3-0.6,0.4-1,0.5c-0.5,0.1-0.9,0-1.3-0.2c-0.4-0.2-0.7-0.6-0.9-1C47.7,43.2,47.5,42.7,47.5,42.2z M57.1,40.8l1-0.2l0.1,2.7l2.8-0.6l-1.6-15.1l-3.9,0.9l-1.4,15.8l2.8-0.6L57.1,40.8z M57.6,31.5c0.1,2.5,0.3,4.7,0.4,6.4l-0.9,0.2C57.2,36.7,57.3,34.5,57.6,31.5z M61.6,27l4.8-1.5v3.2l-2,10.1l2-0.6v3.2l-5,1.5v-2.3l2.1-11l-1.8,0.6V27z M69.8,40.4L67,41.3v-16l2.7-1.1V40.4z M73.1,39.3l-2.3,0.9V23.8l2.3-0.9l1.5,6.8v-7.5l2.3-1v16.6l-2.4,0.9l-1.4-6.9V39.3z M80.7,32.7l2-1v3.4L78,37.4V20.6l4.5-2.3v3.4l-1.8,0.9v3.2l1.7-0.8v3.2L80.7,29V32.7z M61.8,51.6c0.2,0.5-0.1,1.1-0.7,1.2c-0.1,0-13.6,4-28.3,4c-0.6,0-1-0.4-1-1s0.4-1,1-1c14.4,0,27.6-3.9,27.7-4C61.1,50.8,61.6,51.1,61.8,51.6z M31.8,61.6c0-0.6,0.4-1,1-1c14.6,0,27.6-4.1,27.7-4.2c0.5-0.2,1.1,0.1,1.3,0.6c0.2,0.5-0.1,1.1-0.6,1.3c-0.2,0.1-13.4,4.3-28.3,4.3C32.3,62.6,31.8,62.1,31.8,61.6z M31.8,67.2c0-0.6,0.4-1,1-1c14.7,0,27.6-4.3,27.7-4.4c0.5-0.2,1.1,0.1,1.3,0.6c0.2,0.5-0.1,1.1-0.6,1.3c-0.2,0.1-13.3,4.5-28.4,4.5C32.3,68.2,31.8,67.8,31.8,67.2z M61.8,67.9c0.2,0.5-0.1,1.1-0.6,1.3c-0.3,0.1-13.1,4.7-28.4,4.7c-0.6,0-1-0.4-1-1s0.4-1,1-1c14.9,0,27.6-4.6,27.7-4.6C61,67.1,61.6,67.4,61.8,67.9z M61.8,73.3c0.2,0.5-0.1,1.1-0.6,1.3c-0.3,0.1-13,5-28.4,5c-0.6,0-1-0.4-1-1c0-0.6,0.4-1,1-1c15,0,27.5-4.8,27.7-4.8C61,72.5,61.6,72.8,61.8,73.3z M61.8,78.7c0.2,0.5,0,1.1-0.5,1.3c-0.3,0.1-12.8,5.2-28.4,5.2c-0.6,0-1-0.4-1-1c0-0.6,0.4-1,1-1c15.2,0,27.5-5,27.7-5C61,78,61.6,78.2,61.8,78.7z M61.8,84.2c0.2,0.5,0,1.1-0.5,1.3c-0.4,0.2-12.7,5.4-28.4,5.4c-0.6,0-1-0.4-1-1s0.4-1,1-1c15.3,0,27.5-5.2,27.6-5.2C60.9,83.4,61.5,83.7,61.8,84.2z M61.7,89.6c0.2,0.5,0,1.1-0.5,1.3c-0.4,0.2-12.5,5.6-28.4,5.6c-0.6,0-1-0.4-1-1c0-0.6,0.4-1,1-1c15.5,0,27.5-5.4,27.6-5.5C60.9,88.9,61.5,89.1,61.7,89.6z M61.7,95c0.2,0.5,0,1.1-0.5,1.3c-0.5,0.2-12.4,5.9-28.5,5.9c-0.6,0-1-0.4-1-1s0.4-1,1-1c15.6,0,27.5-5.6,27.6-5.7C60.9,94.3,61.5,94.5,61.7,95z M61.7,100.4c0.2,0.5,0.1,1.1-0.4,1.3c-0.5,0.2-12.2,6.1-28.5,6.1c-0.6,0-1-0.4-1-1s0.4-1,1-1c15.8,0,27.5-5.8,27.6-5.9C60.9,99.8,61.5,100,61.7,100.4z M82.3,45.3c0.1,0.2,0,0.5-0.2,0.7c-0.2,0.1-5.5,2.9-14.2,4.4c0,0-0.1,0-0.1,0c-0.2,0-0.5-0.2-0.5-0.4c0-0.3,0.1-0.5,0.4-0.6c8.5-1.4,13.8-4.2,13.9-4.3C81.8,45,82.2,45.1,82.3,45.3z M82.3,48.2c0.1,0.2,0,0.5-0.2,0.7c-0.2,0.1-5.5,3-14.2,4.4c0,0-0.1,0-0.1,0c-0.2,0-0.5-0.2-0.5-0.4c0-0.3,0.1-0.5,0.4-0.6c8.5-1.4,13.8-4.3,13.9-4.3C81.8,47.8,82.2,47.9,82.3,48.2z M82.3,51c0.1,0.2,0,0.5-0.2,0.7c-0.2,0.1-5.5,3-14.2,4.5c0,0-0.1,0-0.1,0c-0.2,0-0.5-0.2-0.5-0.4c0-0.3,0.1-0.5,0.4-0.6c8.5-1.4,13.8-4.3,13.9-4.3C81.8,50.7,82.1,50.8,82.3,51z M82.3,53.9c0.1,0.2,0,0.5-0.2,0.7c-0.2,0.1-5.5,3.1-14.2,4.5c0,0-0.1,0-0.1,0c-0.2,0-0.5-0.2-0.5-0.4c0-0.3,0.1-0.5,0.4-0.6c8.5-1.4,13.8-4.4,13.9-4.4C81.8,53.5,82.1,53.6,82.3,53.9z M82.3,56.7c0.1,0.2,0,0.5-0.2,0.7c-0.2,0.1-5.6,3.1-14.2,4.5c0,0-0.1,0-0.1,0c-0.2,0-0.5-0.2-0.5-0.4c0-0.3,0.1-0.5,0.4-0.6c8.4-1.4,13.8-4.4,13.9-4.4C81.8,56.4,82.1,56.5,82.3,56.7z M82.3,59.5c0.1,0.2,0,0.5-0.2,0.7c-0.2,0.1-5.6,3.2-14.2,4.6c0,0-0.1,0-0.1,0c-0.2,0-0.5-0.2-0.5-0.4c0-0.3,0.1-0.5,0.4-0.6c8.4-1.4,13.8-4.4,13.9-4.5C81.8,59.2,82.1,59.3,82.3,59.5z M82.3,62.4c0.1,0.2,0.1,0.5-0.2,0.7c-0.2,0.1-5.6,3.2-14.2,4.6c0,0-0.1,0-0.1,0c-0.2,0-0.5-0.2-0.5-0.4c0-0.3,0.1-0.5,0.4-0.6c8.4-1.4,13.8-4.5,13.9-4.5C81.8,62,82.1,62.1,82.3,62.4z M82.3,65.2c0.1,0.2,0.1,0.5-0.2,0.7c-0.2,0.1-5.6,3.2-14.2,4.7c0,0-0.1,0-0.1,0c-0.2,0-0.5-0.2-0.5-0.4c0-0.3,0.1-0.5,0.4-0.6c8.4-1.4,13.8-4.5,13.9-4.5C81.8,64.9,82.1,65,82.3,65.2z M82.3,68.1c0.1,0.2,0.1,0.5-0.2,0.7c-0.2,0.1-5.6,3.3-14.2,4.7c0,0-0.1,0-0.1,0c-0.2,0-0.5-0.2-0.5-0.4c0-0.3,0.1-0.5,0.4-0.6c8.4-1.4,13.8-4.5,13.9-4.6C81.8,67.7,82.1,67.8,82.3,68.1z M82.3,70.9c0.1,0.2,0.1,0.5-0.2,0.7c-0.2,0.1-5.6,3.3-14.2,4.7c0,0-0.1,0-0.1,0c-0.2,0-0.5-0.2-0.5-0.4c0-0.3,0.1-0.5,0.4-0.6c8.4-1.4,13.8-4.6,13.9-4.6C81.8,70.6,82.1,70.7,82.3,70.9z M82.3,73.7c0.1,0.2,0.1,0.5-0.2,0.7c-0.2,0.1-5.7,3.4-14.2,4.8c0,0-0.1,0-0.1,0c-0.2,0-0.5-0.2-0.5-0.4c0-0.3,0.1-0.5,0.4-0.6c8.3-1.4,13.8-4.6,13.9-4.7C81.8,73.4,82.1,73.5,82.3,73.7z M82.3,76.6c0.1,0.2,0.1,0.5-0.2,0.7c-0.2,0.1-5.7,3.4-14.2,4.8c0,0-0.1,0-0.1,0c-0.2,0-0.5-0.2-0.5-0.4c0-0.3,0.1-0.5,0.4-0.6c8.3-1.4,13.8-4.7,13.9-4.7C81.8,76.3,82.1,76.3,82.3,76.6z M82.3,79.4c0.1,0.2,0.1,0.5-0.2,0.7c-0.2,0.1-5.7,3.4-14.2,4.9c0,0-0.1,0-0.1,0c-0.2,0-0.5-0.2-0.5-0.4c0-0.3,0.1-0.5,0.4-0.6c8.3-1.4,13.8-4.7,13.9-4.7C81.8,79.1,82.1,79.2,82.3,79.4z M82.3,82.2c0.1,0.2,0.1,0.5-0.2,0.7c-0.2,0.1-5.7,3.5-14.2,4.9c0,0-0.1,0-0.1,0c-0.2,0-0.5-0.2-0.5-0.4c0-0.3,0.1-0.5,0.4-0.6c8.3-1.4,13.8-4.7,13.9-4.8C81.8,81.9,82.1,82,82.3,82.2z M82.3,85.1c0.1,0.2,0.1,0.5-0.2,0.7c-0.2,0.1-5.7,3.5-14.2,4.9c0,0-0.1,0-0.1,0c-0.2,0-0.5-0.2-0.5-0.4c0-0.3,0.1-0.5,0.4-0.6c8.3-1.4,13.8-4.8,13.9-4.8C81.8,84.8,82.1,84.9,82.3,85.1z M82.3,87.9c0.1,0.2,0.1,0.5-0.2,0.7c-0.2,0.1-5.8,3.5-14.2,5c0,0-0.1,0-0.1,0c-0.2,0-0.5-0.2-0.5-0.4c0-0.3,0.1-0.5,0.4-0.6c8.3-1.4,13.8-4.8,13.9-4.9C81.8,87.6,82.1,87.7,82.3,87.9z M82.3,90.8c0.1,0.2,0.1,0.5-0.2,0.7c-0.2,0.1-5.8,3.6-14.2,5c0,0-0.1,0-0.1,0c-0.2,0-0.5-0.2-0.5-0.4c0-0.3,0.1-0.5,0.4-0.6c8.2-1.4,13.8-4.9,13.8-4.9C81.8,90.5,82.1,90.5,82.3,90.8z M82.3,93.6c0.1,0.2,0.1,0.5-0.2,0.7s-5.8,3.6-14.2,5.1c0,0-0.1,0-0.1,0c-0.2,0-0.5-0.2-0.5-0.4c0-0.3,0.1-0.5,0.4-0.6c8.2-1.4,13.8-4.9,13.8-4.9C81.8,93.3,82.1,93.4,82.3,93.6z"></path></g><g transform="scale(8)" id="group_1"><path d="M14.8,2.2c-0.1-0.1-0.3-0.1-0.4-0.1L13,2.4v-1c0-0.2-0.1-0.3-0.2-0.4C12.7,1,12.5,0.9,12.4,1c0,0-0.7,0.2-1.4,0.4V0.5c0-0.2-0.1-0.4-0.3-0.4c-0.2-0.1-0.4-0.1-0.5,0c0,0-2.9,2.1-7.7,2.1C2.2,2.2,2,2.4,2,2.7v11.8c0,0,0,0.1,0,0.1c0,0.5,0.2,0.8,0.4,1C2.8,16,3.4,16,3.5,16c0,0,0,0,0,0c3.3,0,11,0,11,0c0.3,0,0.5-0.2,0.5-0.5V2.6C15,2.4,14.9,2.2,14.8,2.2z M12,2.1v11.6c-0.7,0.1-2.2,0.4-4.3,0.5c1.6-0.4,2.8-0.8,2.9-0.8c0.2-0.1,0.3-0.3,0.3-0.5V2.4C11.3,2.3,11.7,2.2,12,2.1z M3,3.2C6.4,3.1,8.8,2,10,1.4v11.2C9,13,5.7,13.9,3,14V3.2z M14,15c-0.7,0-2,0-3.6,0c1.4-0.2,2.2-0.3,2.2-0.3c0.2,0,0.4-0.3,0.4-0.5V3.4c0.1,0,0.2,0,0.2,0L14,3.2V15z M9.1,6c0.1,0.2,0,0.4-0.2,0.5c-0.1,0-2.1,0.9-4.3,0.9C4.3,7.4,4.1,7.2,4.1,7c0-0.2,0.2-0.4,0.4-0.4c0,0,0,0,0,0c2.1,0,4-0.8,4-0.9C8.8,5.7,9,5.8,9.1,6z M9,7.5c0.1,0.2,0,0.4-0.2,0.5c-0.1,0-2,1-4.4,1c0,0,0,0,0,0C4.3,9,4.1,8.9,4.1,8.7c0-0.2,0.2-0.4,0.4-0.4c2.2,0,4-0.9,4.1-0.9C8.7,7.3,9,7.4,9,7.5z M9,9.1c0.1,0.2,0,0.4-0.2,0.5c-0.1,0-1.9,1-4.4,1.1c0,0,0,0,0,0c-0.2,0-0.4-0.2-0.4-0.4c0-0.2,0.2-0.4,0.4-0.4c2.3-0.1,4-1,4.1-1C8.7,8.8,8.9,8.9,9,9.1z M9,10.7c0.1,0.2,0,0.4-0.1,0.5c-0.1,0-1.8,1.1-4.4,1.2c0,0,0,0,0,0c-0.2,0-0.4-0.2-0.4-0.4c0-0.2,0.1-0.4,0.4-0.4c2.4-0.1,4-1.1,4-1.1C8.7,10.4,8.9,10.5,9,10.7z M9,4.6c0,0-2.3,1.1-5,1.1V4.1C6.4,4.1,9,3,9,3V4.6z"></path></g><g transform="scale(4)" id="group_2"><path d="M28.6,4.3c-0.2-0.2-0.6-0.3-0.9-0.2L26,4.6V2.9c0-0.3-0.2-0.6-0.4-0.8C25.3,1.9,25,1.9,24.7,2c0,0-0.8,0.3-1.7,0.5V1c0-0.4-0.2-0.7-0.5-0.9c-0.3-0.2-0.7-0.1-1,0.1c-0.1,0-6.2,4.2-16.4,4.2c-0.6,0-1,0.4-1,1V29c0,0.1,0,0.1,0,0.2c0.1,1,0.5,1.6,0.8,1.9C5.7,32,6.8,32,7,32c0,0,0,0,0,0c6.5,0,21,0,21,0c0.6,0,1-0.4,1-1V5.1C29,4.8,28.9,4.5,28.6,4.3z M24,4.3v23.2c-1.3,0.2-3.9,0.6-7.4,1c3.2-0.7,5.5-1.5,5.7-1.5c0.4-0.1,0.7-0.5,0.7-1V4.6C23.3,4.5,23.7,4.4,24,4.3z M6,6.3C13.4,6.2,18.6,4,21,2.7v22.5c-2.2,0.6-9.1,2.5-15,2.7V6.3z M27,30c-1.2,0-3.5,0-6.2,0c2.7-0.4,4.3-0.7,4.4-0.7c0.5-0.1,0.8-0.5,0.8-1V6.7l1-0.3V30z M7.9,11.6l-0.6,0V8.1l0.9,0c0,0.2,0.1,0.5,0.1,0.8l0.1,0.9L8.5,8l0.9,0v3.6l-0.6,0l0-2.4l-0.2,2.4l-0.4,0L7.9,9.3L7.9,11.6z M10.3,10.9l0.2,0l0,0.6l0.7-0.1l-0.4-3.6L9.9,8l-0.3,3.6l0.7-0.1L10.3,10.9z M10.4,8.7c0,0.6,0.1,1.1,0.1,1.5l-0.2,0C10.3,9.9,10.3,9.4,10.4,8.7z M11.4,10.7c0-0.1,0-0.3,0-0.5V9.1c0-0.3,0-0.6,0-0.7c0-0.2,0.1-0.3,0.2-0.5c0.1-0.1,0.3-0.2,0.5-0.3c0.2,0,0.4,0,0.5,0.1c0.1,0.1,0.2,0.2,0.3,0.4c0,0.1,0.1,0.4,0.1,0.7v0.2L12.3,9V8.7c0-0.2,0-0.3,0-0.4s0-0.1-0.1-0.1c0,0-0.1,0-0.1,0.1c0,0,0,0.2,0,0.3v1.7c0,0.2,0,0.3,0,0.3c0,0,0,0.1,0.1,0.1c0,0,0.1,0,0.1-0.1c0-0.1,0-0.2,0-0.3V9.9l-0.1,0V9.4l0.8-0.1v1.9l-0.4,0.1L12.4,11c0,0.1-0.1,0.2-0.2,0.3c-0.1,0.1-0.2,0.1-0.2,0.1c-0.1,0-0.2,0-0.3-0.1s-0.2-0.1-0.2-0.2C11.4,11,11.4,10.9,11.4,10.7z M13.8,10.4l0.2-0.1l0,0.7l0.7-0.2l-0.4-3.7l-1,0.2L13,11.2l0.7-0.2L13.8,10.4z M13.9,8.1c0,0.6,0.1,1.1,0.1,1.5l-0.2,0.1C13.8,9.4,13.8,8.9,13.9,8.1z M14.9,7l1.2-0.4v0.8l-0.5,2.4l0.5-0.1v0.8l-1.3,0.4v-0.6l0.5-2.7l-0.5,0.1V7z M16.9,10.3l-0.7,0.2V6.6l0.7-0.3V10.3z M17.8,10l-0.6,0.2v-4l0.6-0.2l0.4,1.6V5.9l0.6-0.3v4l-0.6,0.2l-0.4-1.7V10z M20.2,9L19,9.6V5.5L20.1,5v0.8L19.7,6v0.8l0.4-0.2v0.8l-0.4,0.2v0.9l0.5-0.2V9z M7.2,14c0-0.3,0.2-0.5,0.5-0.5c3.6,0,6.8-0.9,6.9-0.9c0.3-0.1,0.5,0.1,0.6,0.3c0.1,0.3-0.1,0.5-0.3,0.6c-0.1,0-3.4,1-7.1,1C7.4,14.5,7.2,14.3,7.2,14z M7.2,15.9c0-0.3,0.2-0.5,0.5-0.5c3.6,0,6.8-1,6.9-1c0.3-0.1,0.5,0.1,0.6,0.3s-0.1,0.5-0.3,0.6c-0.1,0-3.4,1.1-7.2,1.1C7.4,16.4,7.2,16.2,7.2,15.9z M7.2,17.8c0-0.3,0.2-0.5,0.5-0.5c3.7,0,6.8-1.1,6.8-1.1c0.3-0.1,0.5,0,0.6,0.3s0,0.5-0.3,0.6c-0.1,0-3.3,1.2-7.2,1.2C7.4,18.3,7.2,18.1,7.2,17.8z M7.2,19.7c0-0.3,0.2-0.5,0.5-0.5c3.7,0,6.8-1.2,6.8-1.2c0.3-0.1,0.5,0,0.6,0.3c0.1,0.3,0,0.5-0.3,0.6c-0.1,0.1-3.3,1.2-7.2,1.2C7.4,20.2,7.2,20,7.2,19.7z M15.2,20.1c0.1,0.3,0,0.5-0.3,0.7c-0.1,0.1-3.2,1.3-7.2,1.3c-0.3,0-0.5-0.2-0.5-0.5s0.2-0.5,0.5-0.5c3.8,0,6.8-1.2,6.8-1.3C14.8,19.7,15.1,19.9,15.2,20.1z M15.2,21.9c0.1,0.3,0,0.5-0.2,0.7c-0.1,0.1-3.2,1.4-7.2,1.4c-0.3,0-0.5-0.2-0.5-0.5S7.4,23,7.7,23c3.8,0,6.8-1.3,6.8-1.3C14.8,21.5,15.1,21.7,15.2,21.9z M15.2,23.7c0.1,0.2,0,0.5-0.2,0.7c-0.1,0.1-3.1,1.5-7.2,1.5c-0.3,0-0.5-0.2-0.5-0.5s0.2-0.5,0.5-0.5c3.9,0,6.8-1.4,6.8-1.4C14.7,23.4,15,23.5,15.2,23.7z M16.2,12.6c0-0.1,0.1-0.3,0.2-0.3c2.1-0.3,3.4-1,3.4-1c0.1-0.1,0.3,0,0.3,0.1c0.1,0.1,0,0.3-0.1,0.3c-0.1,0-1.4,0.7-3.6,1.1c0,0,0,0,0,0C16.3,12.8,16.2,12.7,16.2,12.6z M16.2,13.7c0-0.1,0.1-0.3,0.2-0.3c2.1-0.3,3.4-1,3.4-1c0.1-0.1,0.3,0,0.3,0.1c0.1,0.1,0,0.3-0.1,0.3c-0.1,0-1.4,0.7-3.6,1.1c0,0,0,0,0,0C16.3,13.9,16.2,13.8,16.2,13.7z M16.2,14.8c0-0.1,0.1-0.3,0.2-0.3c2.1-0.3,3.4-1,3.4-1.1c0.1-0.1,0.3,0,0.3,0.1c0.1,0.1,0,0.3-0.1,0.3c-0.1,0-1.4,0.7-3.6,1.1c0,0,0,0,0,0C16.3,15,16.2,14.9,16.2,14.8z M16.2,15.9c0-0.1,0.1-0.3,0.2-0.3c2.1-0.3,3.4-1.1,3.4-1.1c0.1-0.1,0.3,0,0.3,0.1c0.1,0.1,0,0.3-0.1,0.3c-0.1,0-1.4,0.8-3.6,1.1c0,0,0,0,0,0C16.3,16.1,16.2,16,16.2,15.9z M16.2,17c0-0.1,0.1-0.3,0.2-0.3c2.1-0.3,3.4-1.1,3.4-1.1c0.1-0.1,0.3,0,0.3,0.1c0.1,0.1,0,0.3-0.1,0.3c-0.1,0-1.4,0.8-3.6,1.1c0,0,0,0,0,0C16.3,17.2,16.2,17.1,16.2,17z M16.2,18c0-0.1,0.1-0.3,0.2-0.3c2.1-0.3,3.4-1.1,3.4-1.1c0.1-0.1,0.3,0,0.3,0.1c0.1,0.1,0,0.3-0.1,0.3c-0.1,0-1.4,0.8-3.6,1.2c0,0,0,0,0,0C16.3,18.3,16.2,18.2,16.2,18z M16.2,19.1c0-0.1,0.1-0.3,0.2-0.3c2.1-0.3,3.4-1.1,3.4-1.1c0.1-0.1,0.3,0,0.3,0.1c0.1,0.1,0,0.3-0.1,0.3c-0.1,0-1.4,0.8-3.6,1.2c0,0,0,0,0,0C16.3,19.3,16.2,19.3,16.2,19.1z M16.2,20.2c0-0.1,0.1-0.3,0.2-0.3c2-0.3,3.4-1.1,3.4-1.1c0.1-0.1,0.3,0,0.3,0.1c0.1,0.1,0,0.3-0.1,0.3c-0.1,0-1.4,0.8-3.6,1.2c0,0,0,0,0,0C16.3,20.4,16.2,20.3,16.2,20.2z M16.2,21.3c0-0.1,0.1-0.3,0.2-0.3c2.1-0.3,3.4-1.1,3.4-1.1c0.1-0.1,0.3,0,0.3,0.1c0.1,0.1,0,0.3-0.1,0.3c-0.1,0-1.5,0.9-3.6,1.2c0,0,0,0,0,0C16.3,21.5,16.2,21.4,16.2,21.3z M20.2,21c0.1,0.1,0,0.3-0.1,0.3c-0.1,0-1.5,0.9-3.6,1.2c0,0,0,0,0,0c-0.1,0-0.2-0.1-0.2-0.2c0-0.1,0.1-0.3,0.2-0.3c2-0.3,3.4-1.2,3.4-1.2C19.9,20.9,20.1,20.9,20.2,21z M20.2,22.1c0.1,0.1,0,0.3-0.1,0.3c-0.1,0-1.5,0.9-3.6,1.2c0,0,0,0,0,0c-0.1,0-0.2-0.1-0.2-0.2c0-0.1,0.1-0.3,0.2-0.3c2-0.3,3.4-1.2,3.4-1.2C19.9,21.9,20.1,22,20.2,22.1z"></path></g></svg>