<?xml version="1.0" encoding="utf-8"?>
<!-- Generator: Adobe Illustrator 18.1.1, SVG Export Plug-In . SVG Version: 6.00 Build 0)  -->
<svg version="1.1" id="Layer_1" xmlns="http://www.w3.org/2000/svg" xmlns:xlink="http://www.w3.org/1999/xlink" x="0px" y="0px"
	 viewBox="0 0 32 32" enable-background="new 0 0 32 32" xml:space="preserve">
<path d="M28.6,4.3c-0.2-0.2-0.6-0.3-0.9-0.2L26,4.6V2.9c0-0.3-0.2-0.6-0.4-0.8C25.3,1.9,25,1.9,24.7,2c0,0-0.8,0.3-1.7,0.5V1
	c0-0.4-0.2-0.7-0.5-0.9c-0.3-0.2-0.7-0.1-1,0.1c-0.1,0-6.2,4.2-16.4,4.2c-0.6,0-1,0.4-1,1V29c0,0.1,0,0.1,0,0.2
	c0.1,1,0.5,1.6,0.8,1.9C5.7,32,6.8,32,7,32c0,0,0,0,0,0c6.5,0,21,0,21,0c0.6,0,1-0.4,1-1V5.1C29,4.8,28.9,4.5,28.6,4.3z M24,4.3
	v23.2c-1.3,0.2-3.9,0.6-7.4,1c3.2-0.7,5.5-1.5,5.7-1.5c0.4-0.1,0.7-0.5,0.7-1V4.6C23.3,4.5,23.7,4.4,24,4.3z M6,6.3
	C13.4,6.2,18.6,4,21,2.7v22.5c-2.2,0.6-9.1,2.5-15,2.7V6.3z M27,30c-1.2,0-3.5,0-6.2,0c2.7-0.4,4.3-0.7,4.4-0.7
	c0.5-0.1,0.8-0.5,0.8-1V6.7l1-0.3V30z M7.9,11.6l-0.6,0V8.1l0.9,0c0,0.2,0.1,0.5,0.1,0.8l0.1,0.9L8.5,8l0.9,0v3.6l-0.6,0l0-2.4
	l-0.2,2.4l-0.4,0L7.9,9.3L7.9,11.6z M10.3,10.9l0.2,0l0,0.6l0.7-0.1l-0.4-3.6L9.9,8l-0.3,3.6l0.7-0.1L10.3,10.9z M10.4,8.7
	c0,0.6,0.1,1.1,0.1,1.5l-0.2,0C10.3,9.9,10.3,9.4,10.4,8.7z M11.4,10.7c0-0.1,0-0.3,0-0.5V9.1c0-0.3,0-0.6,0-0.7
	c0-0.2,0.1-0.3,0.2-0.5c0.1-0.1,0.3-0.2,0.5-0.3c0.2,0,0.4,0,0.5,0.1c0.1,0.1,0.2,0.2,0.3,0.4c0,0.1,0.1,0.4,0.1,0.7v0.2L12.3,9V8.7
	c0-0.2,0-0.3,0-0.4s0-0.1-0.1-0.1c0,0-0.1,0-0.1,0.1c0,0,0,0.2,0,0.3v1.7c0,0.2,0,0.3,0,0.3c0,0,0,0.1,0.1,0.1c0,0,0.1,0,0.1-0.1
	c0-0.1,0-0.2,0-0.3V9.9l-0.1,0V9.4l0.8-0.1v1.9l-0.4,0.1L12.4,11c0,0.1-0.1,0.2-0.2,0.3c-0.1,0.1-0.2,0.1-0.2,0.1
	c-0.1,0-0.2,0-0.3-0.1s-0.2-0.1-0.2-0.2C11.4,11,11.4,10.9,11.4,10.7z M13.8,10.4l0.2-0.1l0,0.7l0.7-0.2l-0.4-3.7l-1,0.2L13,11.2
	l0.7-0.2L13.8,10.4z M13.9,8.1c0,0.6,0.1,1.1,0.1,1.5l-0.2,0.1C13.8,9.4,13.8,8.9,13.9,8.1z M14.9,7l1.2-0.4v0.8l-0.5,2.4l0.5-0.1
	v0.8l-1.3,0.4v-0.6l0.5-2.7l-0.5,0.1V7z M16.9,10.3l-0.7,0.2V6.6l0.7-0.3V10.3z M17.8,10l-0.6,0.2v-4l0.6-0.2l0.4,1.6V5.9l0.6-0.3v4
	l-0.6,0.2l-0.4-1.7V10z M20.2,9L19,9.6V5.5L20.1,5v0.8L19.7,6v0.8l0.4-0.2v0.8l-0.4,0.2v0.9l0.5-0.2V9z M7.2,14
	c0-0.3,0.2-0.5,0.5-0.5c3.6,0,6.8-0.9,6.9-0.9c0.3-0.1,0.5,0.1,0.6,0.3c0.1,0.3-0.1,0.5-0.3,0.6c-0.1,0-3.4,1-7.1,1
	C7.4,14.5,7.2,14.3,7.2,14z M7.2,15.9c0-0.3,0.2-0.5,0.5-0.5c3.6,0,6.8-1,6.9-1c0.3-0.1,0.5,0.1,0.6,0.3s-0.1,0.5-0.3,0.6
	c-0.1,0-3.4,1.1-7.2,1.1C7.4,16.4,7.2,16.2,7.2,15.9z M7.2,17.8c0-0.3,0.2-0.5,0.5-0.5c3.7,0,6.8-1.1,6.8-1.1c0.3-0.1,0.5,0,0.6,0.3
	s0,0.5-0.3,0.6c-0.1,0-3.3,1.2-7.2,1.2C7.4,18.3,7.2,18.1,7.2,17.8z M7.2,19.7c0-0.3,0.2-0.5,0.5-0.5c3.7,0,6.8-1.2,6.8-1.2
	c0.3-0.1,0.5,0,0.6,0.3c0.1,0.3,0,0.5-0.3,0.6c-0.1,0.1-3.3,1.2-7.2,1.2C7.4,20.2,7.2,20,7.2,19.7z M15.2,20.1
	c0.1,0.3,0,0.5-0.3,0.7c-0.1,0.1-3.2,1.3-7.2,1.3c-0.3,0-0.5-0.2-0.5-0.5s0.2-0.5,0.5-0.5c3.8,0,6.8-1.2,6.8-1.3
	C14.8,19.7,15.1,19.9,15.2,20.1z M15.2,21.9c0.1,0.3,0,0.5-0.2,0.7c-0.1,0.1-3.2,1.4-7.2,1.4c-0.3,0-0.5-0.2-0.5-0.5S7.4,23,7.7,23
	c3.8,0,6.8-1.3,6.8-1.3C14.8,21.5,15.1,21.7,15.2,21.9z M15.2,23.7c0.1,0.2,0,0.5-0.2,0.7c-0.1,0.1-3.1,1.5-7.2,1.5
	c-0.3,0-0.5-0.2-0.5-0.5s0.2-0.5,0.5-0.5c3.9,0,6.8-1.4,6.8-1.4C14.7,23.4,15,23.5,15.2,23.7z M16.2,12.6c0-0.1,0.1-0.3,0.2-0.3
	c2.1-0.3,3.4-1,3.4-1c0.1-0.1,0.3,0,0.3,0.1c0.1,0.1,0,0.3-0.1,0.3c-0.1,0-1.4,0.7-3.6,1.1c0,0,0,0,0,0
	C16.3,12.8,16.2,12.7,16.2,12.6z M16.2,13.7c0-0.1,0.1-0.3,0.2-0.3c2.1-0.3,3.4-1,3.4-1c0.1-0.1,0.3,0,0.3,0.1
	c0.1,0.1,0,0.3-0.1,0.3c-0.1,0-1.4,0.7-3.6,1.1c0,0,0,0,0,0C16.3,13.9,16.2,13.8,16.2,13.7z M16.2,14.8c0-0.1,0.1-0.3,0.2-0.3
	c2.1-0.3,3.4-1,3.4-1.1c0.1-0.1,0.3,0,0.3,0.1c0.1,0.1,0,0.3-0.1,0.3c-0.1,0-1.4,0.7-3.6,1.1c0,0,0,0,0,0
	C16.3,15,16.2,14.9,16.2,14.8z M16.2,15.9c0-0.1,0.1-0.3,0.2-0.3c2.1-0.3,3.4-1.1,3.4-1.1c0.1-0.1,0.3,0,0.3,0.1
	c0.1,0.1,0,0.3-0.1,0.3c-0.1,0-1.4,0.8-3.6,1.1c0,0,0,0,0,0C16.3,16.1,16.2,16,16.2,15.9z M16.2,17c0-0.1,0.1-0.3,0.2-0.3
	c2.1-0.3,3.4-1.1,3.4-1.1c0.1-0.1,0.3,0,0.3,0.1c0.1,0.1,0,0.3-0.1,0.3c-0.1,0-1.4,0.8-3.6,1.1c0,0,0,0,0,0
	C16.3,17.2,16.2,17.1,16.2,17z M16.2,18c0-0.1,0.1-0.3,0.2-0.3c2.1-0.3,3.4-1.1,3.4-1.1c0.1-0.1,0.3,0,0.3,0.1
	c0.1,0.1,0,0.3-0.1,0.3c-0.1,0-1.4,0.8-3.6,1.2c0,0,0,0,0,0C16.3,18.3,16.2,18.2,16.2,18z M16.2,19.1c0-0.1,0.1-0.3,0.2-0.3
	c2.1-0.3,3.4-1.1,3.4-1.1c0.1-0.1,0.3,0,0.3,0.1c0.1,0.1,0,0.3-0.1,0.3c-0.1,0-1.4,0.8-3.6,1.2c0,0,0,0,0,0
	C16.3,19.3,16.2,19.3,16.2,19.1z M16.2,20.2c0-0.1,0.1-0.3,0.2-0.3c2-0.3,3.4-1.1,3.4-1.1c0.1-0.1,0.3,0,0.3,0.1
	c0.1,0.1,0,0.3-0.1,0.3c-0.1,0-1.4,0.8-3.6,1.2c0,0,0,0,0,0C16.3,20.4,16.2,20.3,16.2,20.2z M16.2,21.3c0-0.1,0.1-0.3,0.2-0.3
	c2.1-0.3,3.4-1.1,3.4-1.1c0.1-0.1,0.3,0,0.3,0.1c0.1,0.1,0,0.3-0.1,0.3c-0.1,0-1.5,0.9-3.6,1.2c0,0,0,0,0,0
	C16.3,21.5,16.2,21.4,16.2,21.3z M20.2,21c0.1,0.1,0,0.3-0.1,0.3c-0.1,0-1.5,0.9-3.6,1.2c0,0,0,0,0,0c-0.1,0-0.2-0.1-0.2-0.2
	c0-0.1,0.1-0.3,0.2-0.3c2-0.3,3.4-1.2,3.4-1.2C19.9,20.9,20.1,20.9,20.2,21z M20.2,22.1c0.1,0.1,0,0.3-0.1,0.3
	c-0.1,0-1.5,0.9-3.6,1.2c0,0,0,0,0,0c-0.1,0-0.2-0.1-0.2-0.2c0-0.1,0.1-0.3,0.2-0.3c2-0.3,3.4-1.2,3.4-1.2
	C19.9,21.9,20.1,22,20.2,22.1z"/>
</svg>
