<?xml version="1.0" encoding="utf-8"?>
<!-- Generator: Adobe Illustrator 18.1.1, SVG Export Plug-In . SVG Version: 6.00 Build 0)  -->
<svg version="1.1" id="Layer_1" xmlns="http://www.w3.org/2000/svg" xmlns:xlink="http://www.w3.org/1999/xlink" x="0px" y="0px"
	 viewBox="0 0 128 128" enable-background="new 0 0 128 128" xml:space="preserve">
<path d="M107.5,11.1c-0.3-0.2-0.7-0.2-1,0c0,0-1.9,1.1-3.5,1.8V7c0-0.5-0.3-0.9-0.8-1c-0.4-0.1-0.8,0.1-1.1,0.4
	c-0.1,0.1-0.7,0.7-3.2,1.6V4c0-0.5-0.3-0.9-0.8-1c-0.4-0.1-0.8,0.1-1.1,0.4C96.1,3.5,95.4,4.1,93,5V1c0-0.4-0.2-0.7-0.5-0.9
	c-0.3-0.2-0.7-0.1-1,0.1c-0.1,0-6.5,4.5-18.2,8.9C62.3,13.1,44.7,18,22,18c-0.6,0-1,0.4-1,1v103c0,0,0,0,0,0c0,4.6,3.2,5.9,5,6
	c26.2,0,81-0.1,81-0.1c0.6,0,1-0.4,1-1V12C108,11.6,107.8,11.3,107.5,11.1z M97.3,113.9c0.4-0.1,0.7-0.5,0.7-1V10.2
	c1.3-0.5,2.3-0.9,3-1.3v110.2c-4.5,0.6-25.8,3.3-53.1,4.4C74.6,120.5,97,114,97.3,113.9z M23,20c22.5-0.1,40.1-5,50.9-9.1
	C82.6,7.7,88.4,4.4,91,2.8v103.5c-5.2,1.9-40.2,14.4-68,14.7V20z M23.1,123c30.3-0.3,68.9-14.9,69.3-15.1c0.4-0.1,0.6-0.5,0.6-0.9
	V7.2c1.3-0.5,2.3-0.9,3-1.3v106.3C90.6,113.7,55.9,123,23.1,123C23.1,123,23.1,123,23.1,123z M106,126c-7.5,0-55.9,0.1-79.9,0.1
	c0,0-0.1,0-0.3,0c40.9-0.1,76-5,76.4-5c0.5-0.1,0.9-0.5,0.9-1V15c1-0.4,2.1-0.9,3-1.4V126z M33.7,46l-2.4,0.1V31.2l3.5-0.1
	c0.1,0.9,0.2,1.9,0.3,3.2l0.4,3.8l0.6-7l3.5-0.1v14.9l-2.4,0.1l0-10l-0.9,10.1l-1.7,0.1l-1-9.8L33.7,46z M43.1,42.9l1-0.1l0.1,2.7
	l2.8-0.2l-1.6-14.7l-3.9,0.3l-1.4,15l2.8-0.2L43.1,42.9z M43.6,33.9c0.1,2.5,0.3,4.5,0.4,6.2l-0.9,0.1
	C43.2,38.9,43.4,36.8,43.6,33.9z M47.5,42.2c-0.1-0.5-0.1-1.2-0.1-2.3v-4.4c0-1.4,0.1-2.4,0.2-3.1s0.4-1.3,0.9-1.9
	c0.5-0.6,1.2-1,2-1.1c0.8-0.1,1.5,0,2,0.4c0.5,0.4,0.9,0.9,1,1.5c0.2,0.6,0.2,1.5,0.2,2.7v0.6L51,35.1v-1.3c0-0.8,0-1.4-0.1-1.6
	C50.9,32,50.8,32,50.6,32c-0.2,0-0.3,0.1-0.3,0.3c-0.1,0.2-0.1,0.7-0.1,1.4v7c0,0.7,0,1.1,0.1,1.3c0.1,0.2,0.2,0.3,0.4,0.3
	c0.2,0,0.3-0.2,0.4-0.4c0.1-0.2,0.1-0.7,0.1-1.4v-1.7l-0.5,0.1v-2.2l3.2-0.5v7.9L52,44.2l-0.3-1c-0.2,0.5-0.4,0.9-0.7,1.1
	c-0.3,0.3-0.6,0.4-1,0.5c-0.5,0.1-0.9,0-1.3-0.2c-0.4-0.2-0.7-0.6-0.9-1C47.7,43.2,47.5,42.7,47.5,42.2z M57.1,40.8l1-0.2l0.1,2.7
	l2.8-0.6l-1.6-15.1l-3.9,0.9l-1.4,15.8l2.8-0.6L57.1,40.8z M57.6,31.5c0.1,2.5,0.3,4.7,0.4,6.4l-0.9,0.2
	C57.2,36.7,57.3,34.5,57.6,31.5z M61.6,27l4.8-1.5v3.2l-2,10.1l2-0.6v3.2l-5,1.5v-2.3l2.1-11l-1.8,0.6V27z M69.8,40.4L67,41.3v-16
	l2.7-1.1V40.4z M73.1,39.3l-2.3,0.9V23.8l2.3-0.9l1.5,6.8v-7.5l2.3-1v16.6l-2.4,0.9l-1.4-6.9V39.3z M80.7,32.7l2-1v3.4L78,37.4V20.6
	l4.5-2.3v3.4l-1.8,0.9v3.2l1.7-0.8v3.2L80.7,29V32.7z M61.8,51.6c0.2,0.5-0.1,1.1-0.7,1.2c-0.1,0-13.6,4-28.3,4c-0.6,0-1-0.4-1-1
	s0.4-1,1-1c14.4,0,27.6-3.9,27.7-4C61.1,50.8,61.6,51.1,61.8,51.6z M31.8,61.6c0-0.6,0.4-1,1-1c14.6,0,27.6-4.1,27.7-4.2
	c0.5-0.2,1.1,0.1,1.3,0.6c0.2,0.5-0.1,1.1-0.6,1.3c-0.2,0.1-13.4,4.3-28.3,4.3C32.3,62.6,31.8,62.1,31.8,61.6z M31.8,67.2
	c0-0.6,0.4-1,1-1c14.7,0,27.6-4.3,27.7-4.4c0.5-0.2,1.1,0.1,1.3,0.6c0.2,0.5-0.1,1.1-0.6,1.3c-0.2,0.1-13.3,4.5-28.4,4.5
	C32.3,68.2,31.8,67.8,31.8,67.2z M61.8,67.9c0.2,0.5-0.1,1.1-0.6,1.3c-0.3,0.1-13.1,4.7-28.4,4.7c-0.6,0-1-0.4-1-1s0.4-1,1-1
	c14.9,0,27.6-4.6,27.7-4.6C61,67.1,61.6,67.4,61.8,67.9z M61.8,73.3c0.2,0.5-0.1,1.1-0.6,1.3c-0.3,0.1-13,5-28.4,5c-0.6,0-1-0.4-1-1
	c0-0.6,0.4-1,1-1c15,0,27.5-4.8,27.7-4.8C61,72.5,61.6,72.8,61.8,73.3z M61.8,78.7c0.2,0.5,0,1.1-0.5,1.3
	c-0.3,0.1-12.8,5.2-28.4,5.2c-0.6,0-1-0.4-1-1c0-0.6,0.4-1,1-1c15.2,0,27.5-5,27.7-5C61,78,61.6,78.2,61.8,78.7z M61.8,84.2
	c0.2,0.5,0,1.1-0.5,1.3c-0.4,0.2-12.7,5.4-28.4,5.4c-0.6,0-1-0.4-1-1s0.4-1,1-1c15.3,0,27.5-5.2,27.6-5.2
	C60.9,83.4,61.5,83.7,61.8,84.2z M61.7,89.6c0.2,0.5,0,1.1-0.5,1.3c-0.4,0.2-12.5,5.6-28.4,5.6c-0.6,0-1-0.4-1-1c0-0.6,0.4-1,1-1
	c15.5,0,27.5-5.4,27.6-5.5C60.9,88.9,61.5,89.1,61.7,89.6z M61.7,95c0.2,0.5,0,1.1-0.5,1.3c-0.5,0.2-12.4,5.9-28.5,5.9
	c-0.6,0-1-0.4-1-1s0.4-1,1-1c15.6,0,27.5-5.6,27.6-5.7C60.9,94.3,61.5,94.5,61.7,95z M61.7,100.4c0.2,0.5,0.1,1.1-0.4,1.3
	c-0.5,0.2-12.2,6.1-28.5,6.1c-0.6,0-1-0.4-1-1s0.4-1,1-1c15.8,0,27.5-5.8,27.6-5.9C60.9,99.8,61.5,100,61.7,100.4z M82.3,45.3
	c0.1,0.2,0,0.5-0.2,0.7c-0.2,0.1-5.5,2.9-14.2,4.4c0,0-0.1,0-0.1,0c-0.2,0-0.5-0.2-0.5-0.4c0-0.3,0.1-0.5,0.4-0.6
	c8.5-1.4,13.8-4.2,13.9-4.3C81.8,45,82.2,45.1,82.3,45.3z M82.3,48.2c0.1,0.2,0,0.5-0.2,0.7c-0.2,0.1-5.5,3-14.2,4.4
	c0,0-0.1,0-0.1,0c-0.2,0-0.5-0.2-0.5-0.4c0-0.3,0.1-0.5,0.4-0.6c8.5-1.4,13.8-4.3,13.9-4.3C81.8,47.8,82.2,47.9,82.3,48.2z M82.3,51
	c0.1,0.2,0,0.5-0.2,0.7c-0.2,0.1-5.5,3-14.2,4.5c0,0-0.1,0-0.1,0c-0.2,0-0.5-0.2-0.5-0.4c0-0.3,0.1-0.5,0.4-0.6
	c8.5-1.4,13.8-4.3,13.9-4.3C81.8,50.7,82.1,50.8,82.3,51z M82.3,53.9c0.1,0.2,0,0.5-0.2,0.7c-0.2,0.1-5.5,3.1-14.2,4.5
	c0,0-0.1,0-0.1,0c-0.2,0-0.5-0.2-0.5-0.4c0-0.3,0.1-0.5,0.4-0.6c8.5-1.4,13.8-4.4,13.9-4.4C81.8,53.5,82.1,53.6,82.3,53.9z
	 M82.3,56.7c0.1,0.2,0,0.5-0.2,0.7c-0.2,0.1-5.6,3.1-14.2,4.5c0,0-0.1,0-0.1,0c-0.2,0-0.5-0.2-0.5-0.4c0-0.3,0.1-0.5,0.4-0.6
	c8.4-1.4,13.8-4.4,13.9-4.4C81.8,56.4,82.1,56.5,82.3,56.7z M82.3,59.5c0.1,0.2,0,0.5-0.2,0.7c-0.2,0.1-5.6,3.2-14.2,4.6
	c0,0-0.1,0-0.1,0c-0.2,0-0.5-0.2-0.5-0.4c0-0.3,0.1-0.5,0.4-0.6c8.4-1.4,13.8-4.4,13.9-4.5C81.8,59.2,82.1,59.3,82.3,59.5z
	 M82.3,62.4c0.1,0.2,0.1,0.5-0.2,0.7c-0.2,0.1-5.6,3.2-14.2,4.6c0,0-0.1,0-0.1,0c-0.2,0-0.5-0.2-0.5-0.4c0-0.3,0.1-0.5,0.4-0.6
	c8.4-1.4,13.8-4.5,13.9-4.5C81.8,62,82.1,62.1,82.3,62.4z M82.3,65.2c0.1,0.2,0.1,0.5-0.2,0.7c-0.2,0.1-5.6,3.2-14.2,4.7
	c0,0-0.1,0-0.1,0c-0.2,0-0.5-0.2-0.5-0.4c0-0.3,0.1-0.5,0.4-0.6c8.4-1.4,13.8-4.5,13.9-4.5C81.8,64.9,82.1,65,82.3,65.2z M82.3,68.1
	c0.1,0.2,0.1,0.5-0.2,0.7c-0.2,0.1-5.6,3.3-14.2,4.7c0,0-0.1,0-0.1,0c-0.2,0-0.5-0.2-0.5-0.4c0-0.3,0.1-0.5,0.4-0.6
	c8.4-1.4,13.8-4.5,13.9-4.6C81.8,67.7,82.1,67.8,82.3,68.1z M82.3,70.9c0.1,0.2,0.1,0.5-0.2,0.7c-0.2,0.1-5.6,3.3-14.2,4.7
	c0,0-0.1,0-0.1,0c-0.2,0-0.5-0.2-0.5-0.4c0-0.3,0.1-0.5,0.4-0.6c8.4-1.4,13.8-4.6,13.9-4.6C81.8,70.6,82.1,70.7,82.3,70.9z
	 M82.3,73.7c0.1,0.2,0.1,0.5-0.2,0.7c-0.2,0.1-5.7,3.4-14.2,4.8c0,0-0.1,0-0.1,0c-0.2,0-0.5-0.2-0.5-0.4c0-0.3,0.1-0.5,0.4-0.6
	c8.3-1.4,13.8-4.6,13.9-4.7C81.8,73.4,82.1,73.5,82.3,73.7z M82.3,76.6c0.1,0.2,0.1,0.5-0.2,0.7c-0.2,0.1-5.7,3.4-14.2,4.8
	c0,0-0.1,0-0.1,0c-0.2,0-0.5-0.2-0.5-0.4c0-0.3,0.1-0.5,0.4-0.6c8.3-1.4,13.8-4.7,13.9-4.7C81.8,76.3,82.1,76.3,82.3,76.6z
	 M82.3,79.4c0.1,0.2,0.1,0.5-0.2,0.7c-0.2,0.1-5.7,3.4-14.2,4.9c0,0-0.1,0-0.1,0c-0.2,0-0.5-0.2-0.5-0.4c0-0.3,0.1-0.5,0.4-0.6
	c8.3-1.4,13.8-4.7,13.9-4.7C81.8,79.1,82.1,79.2,82.3,79.4z M82.3,82.2c0.1,0.2,0.1,0.5-0.2,0.7c-0.2,0.1-5.7,3.5-14.2,4.9
	c0,0-0.1,0-0.1,0c-0.2,0-0.5-0.2-0.5-0.4c0-0.3,0.1-0.5,0.4-0.6c8.3-1.4,13.8-4.7,13.9-4.8C81.8,81.9,82.1,82,82.3,82.2z M82.3,85.1
	c0.1,0.2,0.1,0.5-0.2,0.7c-0.2,0.1-5.7,3.5-14.2,4.9c0,0-0.1,0-0.1,0c-0.2,0-0.5-0.2-0.5-0.4c0-0.3,0.1-0.5,0.4-0.6
	c8.3-1.4,13.8-4.8,13.9-4.8C81.8,84.8,82.1,84.9,82.3,85.1z M82.3,87.9c0.1,0.2,0.1,0.5-0.2,0.7c-0.2,0.1-5.8,3.5-14.2,5
	c0,0-0.1,0-0.1,0c-0.2,0-0.5-0.2-0.5-0.4c0-0.3,0.1-0.5,0.4-0.6c8.3-1.4,13.8-4.8,13.9-4.9C81.8,87.6,82.1,87.7,82.3,87.9z
	 M82.3,90.8c0.1,0.2,0.1,0.5-0.2,0.7c-0.2,0.1-5.8,3.6-14.2,5c0,0-0.1,0-0.1,0c-0.2,0-0.5-0.2-0.5-0.4c0-0.3,0.1-0.5,0.4-0.6
	c8.2-1.4,13.8-4.9,13.8-4.9C81.8,90.5,82.1,90.5,82.3,90.8z M82.3,93.6c0.1,0.2,0.1,0.5-0.2,0.7s-5.8,3.6-14.2,5.1c0,0-0.1,0-0.1,0
	c-0.2,0-0.5-0.2-0.5-0.4c0-0.3,0.1-0.5,0.4-0.6c8.2-1.4,13.8-4.9,13.8-4.9C81.8,93.3,82.1,93.4,82.3,93.6z"/>
</svg>
