<?xml version="1.0" encoding="utf-8"?>
<!-- Generator: Adobe Illustrator 18.1.1, SVG Export Plug-In . SVG Version: 6.00 Build 0)  -->
<svg version="1.1" id="Layer_1" xmlns="http://www.w3.org/2000/svg" xmlns:xlink="http://www.w3.org/1999/xlink" x="0px" y="0px"
	 viewBox="0 0 128 128" enable-background="new 0 0 128 128" xml:space="preserve">
<path d="M46.2,60h49.3v8H46.2l16.6,16.6l-5.7,5.7L30.8,64l26.2-26.2l5.7,5.7L46.2,60z M128,64c0,35.3-28.7,64-64,64
	C28.7,128,0,99.3,0,64C0,28.7,28.7,0,64,0C99.3,0,128,28.7,128,64z M122,64c0-32-26-58-58-58S6,32,6,64s26,58,58,58S122,96,122,64z
	 M120.5,64c0,31.2-25.3,56.5-56.5,56.5S7.5,95.2,7.5,64S32.8,7.5,64,7.5S120.5,32.8,120.5,64z M118.5,64c0-30.1-24.4-54.5-54.5-54.5
	C33.9,9.5,9.5,33.9,9.5,64c0,30.1,24.4,54.5,54.5,54.5C94.1,118.5,118.5,94.1,118.5,64z"/>
</svg>
