<?xml version="1.0" encoding="utf-8"?><!-- Generator: Adobe Illustrator 17.1.0, SVG Export Plug-In . SVG Version: 6.00 Build 0)  --><!DOCTYPE svg PUBLIC "-//W3C//DTD SVG 1.0//EN" "http://www.w3.org/TR/2001/REC-SVG-20010904/DTD/svg10.dtd"><svg xmlns="http://www.w3.org/2000/svg" xmlns:xlink="http://www.w3.org/1999/xlink" version="1.0" viewBox="0 0 128 128" preserveAspectRatio="none"><style> svg * { background-size: cover; background-repeat: no-repeat; } @media all and (max-width: 32px) { #group_1 { opacity: 1; } #group_2, #group_3 { opacity: 0; } } @media all and (min-width: 33px) and (max-width: 127px) { #group_2 { opacity: 1; } #group_1, #group_3 { opacity: 0; } } @media all and (min-width: 128px) { #group_3 { opacity: 1; } #group_1, #group_2 { opacity: 0; } } </style><g id="group_3"><path d="M46.2,60h49.3v8H46.2l16.6,16.6l-5.7,5.7L30.8,64l26.2-26.2l5.7,5.7L46.2,60z M128,64c0,35.3-28.7,64-64,64C28.7,128,0,99.3,0,64C0,28.7,28.7,0,64,0C99.3,0,128,28.7,128,64z M122,64c0-32-26-58-58-58S6,32,6,64s26,58,58,58S122,96,122,64z M120.5,64c0,31.2-25.3,56.5-56.5,56.5S7.5,95.2,7.5,64S32.8,7.5,64,7.5S120.5,32.8,120.5,64z M118.5,64c0-30.1-24.4-54.5-54.5-54.5C33.9,9.5,9.5,33.9,9.5,64c0,30.1,24.4,54.5,54.5,54.5C94.1,118.5,118.5,94.1,118.5,64z"></path></g><g transform="scale(8)" id="group_1"><path d="M5.7,7H11v1H5.7l2.1,2.1l-0.7,0.7L3.8,7.5l3.4-3.4l0.7,0.7L5.7,7z M15,7.5c0,4.1-3.4,7.5-7.5,7.5S0,11.6,0,7.5S3.4,0,7.5,0S15,3.4,15,7.5z M14,7.5C14,3.9,11.1,1,7.5,1S1,3.9,1,7.5S3.9,14,7.5,14S14,11.1,14,7.5z"></path></g><g transform="scale(4)" id="group_2"><path d="M11.4,15H24v2H11.4l4.3,4.3l-1.4,1.4L7.6,16l6.7-6.7l1.4,1.4L11.4,15z M32,16c0,8.8-7.2,16-16,16S0,24.8,0,16S7.2,0,16,0S32,7.2,32,16z M30,16c0-7.7-6.3-14-14-14S2,8.3,2,16s6.3,14,14,14S30,23.7,30,16z"></path></g></svg>