<?xml version="1.0" encoding="utf-8"?><!-- Generator: Adobe Illustrator 17.1.0, SVG Export Plug-In . SVG Version: 6.00 Build 0)  --><!DOCTYPE svg PUBLIC "-//W3C//DTD SVG 1.0//EN" "http://www.w3.org/TR/2001/REC-SVG-20010904/DTD/svg10.dtd"><svg xmlns="http://www.w3.org/2000/svg" xmlns:xlink="http://www.w3.org/1999/xlink" version="1.0" viewBox="0 0 128 128" preserveAspectRatio="none"><style> svg * { background-size: cover; background-repeat: no-repeat; } @media all and (max-width: 32px) { #group_1 { opacity: 1; } #group_2, #group_3 { opacity: 0; } } @media all and (min-width: 33px) and (max-width: 127px) { #group_2 { opacity: 1; } #group_1, #group_3 { opacity: 0; } } @media all and (min-width: 128px) { #group_3 { opacity: 1; } #group_1, #group_2 { opacity: 0; } } </style><g id="group_3"><path d="M112.7,103c0.8,0.8,0.8,2,0,2.8l-6.9,6.9c-0.8,0.8-2,0.8-2.8,0l-39-39l-39,39c-0.8,0.8-2,0.8-2.8,0l-6.9-6.9c-0.8-0.8-0.8-2,0-2.8l39-39l-39-39c-0.8-0.8-0.8-2,0-2.8l6.9-6.9c0.8-0.8,2-0.8,2.8,0l39,39l39-39c0.8-0.8,2-0.8,2.8,0l6.9,6.9c0.8,0.8,0.8,2,0,2.8l-39,39L112.7,103z"></path></g><g transform="scale(8)" id="group_1"><path d="M9.6,8l4.5,4.5l-1.6,1.6L8,9.6l-4.5,4.5l-1.6-1.6L6.4,8L1.9,3.5l1.6-1.6L8,6.4l4.5-4.5l1.6,1.6L9.6,8z"></path></g><g transform="scale(4)" id="group_2"><path d="M27.3,24.3c0.4,0.4,0.4,1,0,1.4l-1.5,1.5c-0.4,0.4-1,0.4-1.4,0L16,19l-8.3,8.3c-0.4,0.4-1,0.4-1.4,0l-1.5-1.5c-0.4-0.4-0.4-1,0-1.4L13,16L4.7,7.7c-0.4-0.4-0.4-1,0-1.4l1.5-1.5c0.4-0.4,1-0.4,1.4,0L16,13l8.3-8.3c0.4-0.4,1-0.4,1.4,0l1.5,1.5c0.4,0.4,0.4,1,0,1.4L19,16L27.3,24.3z"></path></g></svg>