<?xml version="1.0" encoding="utf-8"?>
<!-- Generator: Adobe Illustrator 18.1.1, SVG Export Plug-In . SVG Version: 6.00 Build 0)  -->
<svg version="1.1" id="Layer_1" xmlns="http://www.w3.org/2000/svg" xmlns:xlink="http://www.w3.org/1999/xlink" x="0px" y="0px"
	 viewBox="0 0 32 32" enable-background="new 0 0 32 32" xml:space="preserve">
<path d="M27.3,24.3c0.4,0.4,0.4,1,0,1.4l-1.5,1.5c-0.4,0.4-1,0.4-1.4,0L16,19l-8.3,8.3c-0.4,0.4-1,0.4-1.4,0l-1.5-1.5
	c-0.4-0.4-0.4-1,0-1.4L13,16L4.7,7.7c-0.4-0.4-0.4-1,0-1.4l1.5-1.5c0.4-0.4,1-0.4,1.4,0L16,13l8.3-8.3c0.4-0.4,1-0.4,1.4,0l1.5,1.5
	c0.4,0.4,0.4,1,0,1.4L19,16L27.3,24.3z"/>
</svg>
