<?xml version="1.0" encoding="utf-8"?>
<!-- Generator: Adobe Illustrator 18.1.1, SVG Export Plug-In . SVG Version: 6.00 Build 0)  -->
<svg version="1.1" id="Layer_1" xmlns="http://www.w3.org/2000/svg" xmlns:xlink="http://www.w3.org/1999/xlink" x="0px" y="0px"
	 viewBox="0 0 128 128" enable-background="new 0 0 128 128" xml:space="preserve">
<path d="M112.7,103c0.8,0.8,0.8,2,0,2.8l-6.9,6.9c-0.8,0.8-2,0.8-2.8,0l-39-39l-39,39c-0.8,0.8-2,0.8-2.8,0l-6.9-6.9
	c-0.8-0.8-0.8-2,0-2.8l39-39l-39-39c-0.8-0.8-0.8-2,0-2.8l6.9-6.9c0.8-0.8,2-0.8,2.8,0l39,39l39-39c0.8-0.8,2-0.8,2.8,0l6.9,6.9
	c0.8,0.8,0.8,2,0,2.8l-39,39L112.7,103z"/>
</svg>
