<?xml version="1.0" encoding="utf-8"?><!-- Generator: Adobe Illustrator 17.1.0, SVG Export Plug-In . SVG Version: 6.00 Build 0)  --><!DOCTYPE svg PUBLIC "-//W3C//DTD SVG 1.0//EN" "http://www.w3.org/TR/2001/REC-SVG-20010904/DTD/svg10.dtd"><svg xmlns="http://www.w3.org/2000/svg" xmlns:xlink="http://www.w3.org/1999/xlink" version="1.0" viewBox="0 0 128 128" preserveAspectRatio="none"><style> svg * { background-size: cover; background-repeat: no-repeat; } @media all and (max-width: 32px) { #group_1 { opacity: 1; } #group_2, #group_3 { opacity: 0; } } @media all and (min-width: 33px) and (max-width: 127px) { #group_2 { opacity: 1; } #group_1, #group_3 { opacity: 0; } } @media all and (min-width: 128px) { #group_3 { opacity: 1; } #group_1, #group_2 { opacity: 0; } } </style><g id="group_3"><path d="M126.4,23.8l-7.1-7.1c-0.8-0.8-2-0.8-2.8,0L40.3,92.9L11.5,64.1c-0.8-0.8-2-0.8-2.8,0l-7.1,7.1c-0.8,0.8-0.8,2,0,2.8l37.3,37.3c0.8,0.8,2,0.8,2.8,0l84.7-84.6C127.2,25.9,127.2,24.6,126.4,23.8z"></path></g><g transform="scale(8)" id="group_1"><polygon points="16,3.2 14.4,1.6 5.2,10.8 1.6,7.1 0,8.8 5.2,14 "></polygon></g><g transform="scale(4)" id="group_2"><path d="M31.7,6.1L11,26.8c-0.4,0.4-1.1,0.4-1.5,0l-9.3-9.3c-0.4-0.4-0.4-1.1,0-1.5l1.4-1.4c0.4-0.4,1.1-0.4,1.5,0l7.1,7.1L28.8,3.2c0.4-0.4,1.1-0.4,1.5,0l1.4,1.4C32.1,5.1,32.1,5.7,31.7,6.1z"></path></g></svg>