<?xml version="1.0" encoding="utf-8"?>
<!-- Generator: Adobe Illustrator 18.1.1, SVG Export Plug-In . SVG Version: 6.00 Build 0)  -->
<svg version="1.1" id="Layer_1" xmlns="http://www.w3.org/2000/svg" xmlns:xlink="http://www.w3.org/1999/xlink" x="0px" y="0px"
	 viewBox="0 0 16 16" enable-background="new 0 0 16 16" xml:space="preserve">
<path d="M4,7h12v2H4V7z M1,7C0.4,7,0,7.4,0,8c0,0.6,0.4,1,1,1s1-0.4,1-1C2,7.4,1.6,7,1,7z M1,12c-0.6,0-1,0.4-1,1c0,0.6,0.4,1,1,1
	s1-0.4,1-1C2,12.4,1.6,12,1,12z M1,2C0.4,2,0,2.4,0,3c0,0.6,0.4,1,1,1s1-0.4,1-1C2,2.4,1.6,2,1,2z M4,14h12v-2H4V14z M4,2v2h12V2H4z
	"/>
</svg>
