<?xml version="1.0" encoding="utf-8"?><!-- Generator: Adobe Illustrator 17.1.0, SVG Export Plug-In . SVG Version: 6.00 Build 0)  --><!DOCTYPE svg PUBLIC "-//W3C//DTD SVG 1.0//EN" "http://www.w3.org/TR/2001/REC-SVG-20010904/DTD/svg10.dtd"><svg xmlns="http://www.w3.org/2000/svg" xmlns:xlink="http://www.w3.org/1999/xlink" version="1.0" viewBox="0 0 128 128" preserveAspectRatio="none"><style> svg * { background-size: cover; background-repeat: no-repeat; } @media all and (max-width: 32px) { #group_1 { opacity: 1; } #group_2, #group_3 { opacity: 0; } } @media all and (min-width: 33px) and (max-width: 127px) { #group_2 { opacity: 1; } #group_1, #group_3 { opacity: 0; } } @media all and (min-width: 128px) { #group_3 { opacity: 1; } #group_1, #group_2 { opacity: 0; } } </style><g id="group_3"><path d="M128,12v6H28v-6H128z M108,22H28v6h80V22z M11,13c-3.9,0-7,3.1-7,7s3.1,7,7,7s7-3.1,7-7S14.9,13,11,13z M22,20c0,6.1-4.9,11-11,11S0,26.1,0,20S4.9,9,11,9S22,13.9,22,20z M20,20c0-5-4-9-9-9s-9,4-9,9s4,9,9,9S20,25,20,20z M28,106h100v-6H28V106z M28,116h80v-6H28V116z M11,101c-3.9,0-7,3.1-7,7s3.1,7,7,7s7-3.1,7-7S14.9,101,11,101z M22,108c0,6.1-4.9,11-11,11s-11-4.9-11-11s4.9-11,11-11S22,101.9,22,108z M20,108c0-5-4-9-9-9s-9,4-9,9s4,9,9,9S20,113,20,108z M28,62h100v-6H28V62z M108,66H28v6h80V66z M11,57c-3.9,0-7,3.1-7,7s3.1,7,7,7s7-3.1,7-7S14.9,57,11,57z M22,64c0,6.1-4.9,11-11,11S0,70.1,0,64s4.9-11,11-11S22,57.9,22,64z M20,64c0-5-4-9-9-9s-9,4-9,9c0,5,4,9,9,9S20,69,20,64z"></path></g><g transform="scale(8)" id="group_1"><path d="M4,7h12v2H4V7z M1,7C0.4,7,0,7.4,0,8c0,0.6,0.4,1,1,1s1-0.4,1-1C2,7.4,1.6,7,1,7z M1,12c-0.6,0-1,0.4-1,1c0,0.6,0.4,1,1,1s1-0.4,1-1C2,12.4,1.6,12,1,12z M1,2C0.4,2,0,2.4,0,3c0,0.6,0.4,1,1,1s1-0.4,1-1C2,2.4,1.6,2,1,2z M4,14h12v-2H4V14z M4,2v2h12V2H4z"></path></g><g transform="scale(4)" id="group_2"><path d="M8,15h24v2H8V15z M2,14c-1.1,0-2,0.9-2,2c0,1.1,0.9,2,2,2s2-0.9,2-2C4,14.9,3.1,14,2,14z M2,24c-1.1,0-2,0.9-2,2c0,1.1,0.9,2,2,2s2-0.9,2-2C4,24.9,3.1,24,2,24z M2,4C0.9,4,0,4.9,0,6c0,1.1,0.9,2,2,2s2-0.9,2-2C4,4.9,3.1,4,2,4z M8,27h24v-2H8V27z M8,5v2h24V5H8z"></path></g></svg>