<?xml version="1.0" encoding="utf-8"?>
<!-- Generator: Adobe Illustrator 18.1.1, SVG Export Plug-In . SVG Version: 6.00 Build 0)  -->
<svg version="1.1" id="Layer_1" xmlns="http://www.w3.org/2000/svg" xmlns:xlink="http://www.w3.org/1999/xlink" x="0px" y="0px"
	 viewBox="0 0 32 32" enable-background="new 0 0 32 32" xml:space="preserve">
<path d="M8,15h24v2H8V15z M2,14c-1.1,0-2,0.9-2,2c0,1.1,0.9,2,2,2s2-0.9,2-2C4,14.9,3.1,14,2,14z M2,24c-1.1,0-2,0.9-2,2
	c0,1.1,0.9,2,2,2s2-0.9,2-2C4,24.9,3.1,24,2,24z M2,4C0.9,4,0,4.9,0,6c0,1.1,0.9,2,2,2s2-0.9,2-2C4,4.9,3.1,4,2,4z M8,27h24v-2H8V27
	z M8,5v2h24V5H8z"/>
</svg>
