<?xml version="1.0" encoding="utf-8"?>
<!-- Generator: Adobe Illustrator 18.1.1, SVG Export Plug-In . SVG Version: 6.00 Build 0)  -->
<svg version="1.1" id="Layer_1" xmlns="http://www.w3.org/2000/svg" xmlns:xlink="http://www.w3.org/1999/xlink" x="0px" y="0px"
	 viewBox="0 0 128 128" enable-background="new 0 0 128 128" xml:space="preserve">
<path d="M128,12v6H28v-6H128z M108,22H28v6h80V22z M11,13c-3.9,0-7,3.1-7,7s3.1,7,7,7s7-3.1,7-7S14.9,13,11,13z M22,20
	c0,6.1-4.9,11-11,11S0,26.1,0,20S4.9,9,11,9S22,13.9,22,20z M20,20c0-5-4-9-9-9s-9,4-9,9s4,9,9,9S20,25,20,20z M28,106h100v-6H28
	V106z M28,116h80v-6H28V116z M11,101c-3.9,0-7,3.1-7,7s3.1,7,7,7s7-3.1,7-7S14.9,101,11,101z M22,108c0,6.1-4.9,11-11,11
	s-11-4.9-11-11s4.9-11,11-11S22,101.9,22,108z M20,108c0-5-4-9-9-9s-9,4-9,9s4,9,9,9S20,113,20,108z M28,62h100v-6H28V62z M108,66
	H28v6h80V66z M11,57c-3.9,0-7,3.1-7,7s3.1,7,7,7s7-3.1,7-7S14.9,57,11,57z M22,64c0,6.1-4.9,11-11,11S0,70.1,0,64s4.9-11,11-11
	S22,57.9,22,64z M20,64c0-5-4-9-9-9s-9,4-9,9c0,5,4,9,9,9S20,69,20,64z"/>
</svg>
