<?xml version="1.0" encoding="utf-8"?><!-- Generator: Adobe Illustrator 17.1.0, SVG Export Plug-In . SVG Version: 6.00 Build 0)  --><!DOCTYPE svg PUBLIC "-//W3C//DTD SVG 1.0//EN" "http://www.w3.org/TR/2001/REC-SVG-20010904/DTD/svg10.dtd"><svg xmlns="http://www.w3.org/2000/svg" xmlns:xlink="http://www.w3.org/1999/xlink" version="1.0" viewBox="0 0 128 128" preserveAspectRatio="none"><style> svg * { background-size: cover; background-repeat: no-repeat; } @media all and (max-width: 32px) { #group_1 { opacity: 1; } #group_2, #group_3 { opacity: 0; } } @media all and (min-width: 33px) and (max-width: 127px) { #group_2 { opacity: 1; } #group_1, #group_3 { opacity: 0; } } @media all and (min-width: 128px) { #group_3 { opacity: 1; } #group_1, #group_2 { opacity: 0; } } </style><g id="group_3"><path d="M122,0H6C2.7,0,0,2.7,0,6v116c0,3.3,2.7,6,6,6h62V80H52V60h16V44.6C68,28,78.5,19,93.2,19c7.1,0,13,0.5,14.8,0.8V37H97.9c-8,0-9.9,3.9-9.9,9.5V60h19.4L105,80H88v48h34c3.3,0,6-2.7,6-6V6C128,2.7,125.3,0,122,0z"></path></g><g transform="scale(8)" id="group_1"><path d="M16,2v12c0,1.1-0.9,2-2,2h-3v-6h2.1l0.3-2.5H11V5.8c0-0.7,0.2-1.2,1.2-1.2l1.3,0V2.4c-0.2,0-1-0.1-1.8-0.1c-1.8,0-3.2,1.1-3.2,3.2v2h-2V10h2v6H2c-1.1,0-2-0.9-2-2V2c0-1.1,0.9-2,2-2h12C15.1,0,16,0.9,16,2z"></path></g><g transform="scale(4)" id="group_2"><path d="M32,2v28c0,1.1-0.9,2-2,2h-8V20h4.2l0.6-5H22v-3.5c0-1.4,0.5-2.4,2.5-2.4l2.5,0V4.9c-0.4-0.1-1.9-0.2-3.7-0.2C19.6,4.7,17,6.9,17,11v4h-4v5h4v12H2c-1.1,0-2-0.9-2-2V2c0-1.1,0.9-2,2-2h28C31.1,0,32,0.9,32,2z"></path></g></svg>