<?xml version="1.0" encoding="utf-8"?>
<!-- Generator: Adobe Illustrator 18.1.1, SVG Export Plug-In . SVG Version: 6.00 Build 0)  -->
<svg version="1.1" id="Layer_1" xmlns="http://www.w3.org/2000/svg" xmlns:xlink="http://www.w3.org/1999/xlink" x="0px" y="0px"
	 viewBox="0 0 32 32" enable-background="new 0 0 32 32" xml:space="preserve">
<path d="M32,2v28c0,1.1-0.9,2-2,2h-8V20h4.2l0.6-5H22v-3.5c0-1.4,0.5-2.4,2.5-2.4l2.5,0V4.9c-0.4-0.1-1.9-0.2-3.7-0.2
	C19.6,4.7,17,6.9,17,11v4h-4v5h4v12H2c-1.1,0-2-0.9-2-2V2c0-1.1,0.9-2,2-2h28C31.1,0,32,0.9,32,2z"/>
</svg>
