<?xml version="1.0" encoding="utf-8"?>
<!-- Generator: Adobe Illustrator 18.1.1, SVG Export Plug-In . SVG Version: 6.00 Build 0)  -->
<svg version="1.1" id="Layer_1" xmlns="http://www.w3.org/2000/svg" xmlns:xlink="http://www.w3.org/1999/xlink" x="0px" y="0px"
	 viewBox="0 0 16 16" enable-background="new 0 0 16 16" xml:space="preserve">
<path d="M16,2v12c0,1.1-0.9,2-2,2h-3v-6h2.1l0.3-2.5H11V5.8c0-0.7,0.2-1.2,1.2-1.2l1.3,0V2.4c-0.2,0-1-0.1-1.8-0.1
	c-1.8,0-3.2,1.1-3.2,3.2v2h-2V10h2v6H2c-1.1,0-2-0.9-2-2V2c0-1.1,0.9-2,2-2h12C15.1,0,16,0.9,16,2z"/>
</svg>
