<?xml version="1.0" encoding="utf-8"?>
<!-- Generator: Adobe Illustrator 18.1.1, SVG Export Plug-In . SVG Version: 6.00 Build 0)  -->
<svg version="1.1" id="Layer_1" xmlns="http://www.w3.org/2000/svg" xmlns:xlink="http://www.w3.org/1999/xlink" x="0px" y="0px"
	 viewBox="0 0 128 128" enable-background="new 0 0 128 128" xml:space="preserve">
<path d="M122,0H6C2.7,0,0,2.7,0,6v116c0,3.3,2.7,6,6,6h62V80H52V60h16V44.6C68,28,78.5,19,93.2,19c7.1,0,13,0.5,14.8,0.8V37H97.9
	c-8,0-9.9,3.9-9.9,9.5V60h19.4L105,80H88v48h34c3.3,0,6-2.7,6-6V6C128,2.7,125.3,0,122,0z"/>
</svg>
