<?xml version="1.0" encoding="utf-8"?><!-- Generator: Adobe Illustrator 17.1.0, SVG Export Plug-In . SVG Version: 6.00 Build 0)  --><!DOCTYPE svg PUBLIC "-//W3C//DTD SVG 1.0//EN" "http://www.w3.org/TR/2001/REC-SVG-20010904/DTD/svg10.dtd"><svg xmlns="http://www.w3.org/2000/svg" xmlns:xlink="http://www.w3.org/1999/xlink" version="1.0" viewBox="0 0 128 128" preserveAspectRatio="none"><style> svg * { background-size: cover; background-repeat: no-repeat; } @media all and (max-width: 32px) { #group_1 { opacity: 1; } #group_2, #group_3 { opacity: 0; } } @media all and (min-width: 33px) and (max-width: 127px) { #group_2 { opacity: 1; } #group_1, #group_3 { opacity: 0; } } @media all and (min-width: 128px) { #group_3 { opacity: 1; } #group_1, #group_2 { opacity: 0; } } </style><g id="group_3"><path d="M127,106h-19V11c0-6.1-4.9-11-11-11H11C4.9,0,0,4.9,0,11v10c0,0.6,0.4,1,1,1h15v95c0,6.1,4.9,11,11,11h90c6.1,0,11-4.9,11-11v-10C128,106.4,127.6,106,127,106z M2,11c0-5,4-9,9-9h79.7C87.9,4,86,7.3,86,11v9H2V11z M27,126c-5,0-9-4-9-9V22h69c0.6,0,1-0.4,1-1V11c0-5,4-9,9-9s9,4,9,9v106c0,3.7,1.9,7,4.7,9H27z M126,117c0,5-4,9-9,9s-9-4-9-9v-9h18V117z M88,45H32v-4h56V45z M88,58H33v-2h55V58z M33,64h55v2H33V64z M78,74H33v-2h45V74z M84.5,103.5l3.5-1.8L86.8,98l1.2-3.7l-3.5-1.8L82.7,89L79,90.2L75.3,89l-1.8,3.5L70,94.3l1.2,3.7l-1.2,3.7l3.5,1.8l1.8,3.5l3.7-1.2l3.7,1.2L84.5,103.5z M79,103c-2.8,0-5-2.2-5-5s2.2-5,5-5s5,2.2,5,5S81.8,103,79,103z M83,98c0,2.2-1.8,4-4,4s-4-1.8-4-4c0-2.2,1.8-4,4-4S83,95.8,83,98z M74.8,108.2l2.7-0.9l-4.1,8.4l-1.7-3.1l-3.5,0.5l4.4-9l0.1,0.1L74.8,108.2z M85.4,104.2l4.4,9l-3.5-0.5l-1.7,3.1l-4.1-8.4l2.7,0.9l2-4L85.4,104.2z M62.6,97.9c-1,2.7-2.2,5.4-3.6,8l-0.1,0.2c0,0.1-0.1,0.2-0.1,0.3c0.2,0.8,0.3,1.8,0.2,2.8c0,0.2-0.1,0.5-0.3,0.8c-0.2,0.3-0.6,0.5-1,0.5c-0.4,0-0.9-0.2-1.1-0.6c-0.4-0.6-0.3-1.3-0.3-1.5c0.1-0.8,0.4-1.5,0.7-2.1c-0.1-0.3-0.2-0.5-0.3-0.8c-0.1,0-0.1,0.1-0.2,0.1c-0.2,0.1-0.4,0.3-0.7,0.4c-0.6,0.2-1.2,0.1-1.7-0.3c0,0.1-0.1,0.1-0.1,0.2c-0.1,0.2-0.4,0.6-0.8,0.7c-0.4,0.2-0.8,0.1-1.2-0.1c-0.1-0.1-0.2-0.1-0.3-0.2c-0.3,0.4-0.6,0.7-0.9,1c-0.2,0.2-0.9,0.9-1.8,0.8c-0.3-0.1-0.6-0.2-0.8-0.4c-0.4,1-0.9,1.9-1.6,2.6c-1.1,1.1-2.6,1.8-4,1.8c-0.5,0-1-0.1-1.5-0.2c-1.3-0.5-2.4-1.6-3.1-3.1c-0.5-1.1-0.7-2.4-0.6-4.1c0-3,0.7-5.5,2.1-7.4c1.2-1.7,2.9-2.7,4.5-2.6c1.1,0,1.9,0.6,2.1,1.4c0.2,0.6-0.2,1.4-0.9,1.7c-0.6,0.3-1.2,0.1-1.6-0.3c-0.3-0.4-0.2-0.9,0.2-1.1c0,0,0.1,0,0.1-0.1c-1.1-0.1-2.2,0.7-3.1,1.9c-1.2,1.7-1.8,3.8-1.8,6.5c0,1.4,0.1,2.5,0.5,3.4c0.4,1.1,1.2,1.9,2.1,2.2c1.2,0.4,2.7,0,3.8-1.1c0.8-0.8,1.4-2,1.7-3.5l-0.4-1c-0.1-0.3,0-0.7,0.3-0.9c0.4-0.3,0.8-0.3,1.2-0.1c0.5,0.3,0.8,1.1,0.7,1.7c0,0.1,0,0.1,0,0.2l0.2,0.4c0.2,0.5,0.3,0.5,0.3,0.6c0,0,0.1,0,0.4-0.3c0.8-0.8,1.4-1.7,1.8-2.6c0.2-0.4,0.7-0.6,1-0.4c0.4,0.2,0.6,0.6,0.4,1c-0.1,0.2-0.2,0.5-0.2,0.7c0.2-0.4,0.4-0.8,0.6-1.2c0-0.2,0.1-0.4,0.2-0.5c0.2-0.4,0.6-0.5,1-0.3c0.4,0.2,0.6,0.6,0.4,1c0,0.1-0.1,0.2-0.1,0.2c0,0.1,0,0.1,0.1,0.2c0.1,0.1,0.2,0.2,0.3,0.1c0.1,0,0.3-0.1,0.4-0.2c0.4-0.3,1.2-0.8,2-0.2c0.1,0.1,0.2,0.2,0.3,0.3c0,0,0,0,0,0c1.1-2.2,2.2-4.6,3-6.9c0.1-0.4,0.6-0.6,1-0.5C62.5,97,62.7,97.5,62.6,97.9z"></path></g><g transform="scale(8)" id="group_1"><path d="M4,7h5v1H4V7z M4,10h5V9H4V10z M16,12.5v2c0,0.8-0.7,1.5-1.5,1.5h-11C2.1,16,1,14.9,1,13.5V5H0.5C0.2,5,0,4.8,0,4.5v-2C0,1.1,1.1,0,2.5,0h8C11.9,0,13,1.1,13,2.5V12h2.5C15.8,12,16,12.2,16,12.5z M1,4h9V1H2.5C1.7,1,1,1.7,1,2.5V4z M12.5,15c-0.3-0.4-0.5-0.9-0.5-1.5v-11c0-0.7-0.4-1.2-1-1.4v3.4C11,4.8,10.8,5,10.5,5H2v8.5C2,14.3,2.7,15,3.5,15H12.5z M15,13h-2v0.5c0,0.8,0.7,1.5,1.5,1.5c0.3,0,0.5-0.2,0.5-0.5V13z"></path></g><g transform="scale(4)" id="group_2"><path d="M31,25h-5V4c0-2.2-1.8-4-4-4H4C1.8,0,0,1.8,0,4v3c0,0.6,0.4,1,1,1h2v20c0,2.2,1.8,4,4,4h21c2.2,0,4-1.8,4-4v-2C32,25.4,31.6,25,31,25z M2,4c0-1.1,0.9-2,2-2h14.5C18.2,2.6,18,3.3,18,4v2H2V4z M7,30c-1.1,0-2-0.9-2-2V8h14c0.6,0,1-0.4,1-1V4c0-1.1,0.9-2,2-2s2,0.9,2,2v24c0,0.7,0.2,1.4,0.5,2H7z M30,28c0,1.1-0.9,2-2,2s-2-0.9-2-2v-1h4V28z M20,12H8v-2h12V12z M20,15H8v-1h12V15z M20,17H8v-1h12V17z M18.2,25L17,24.6L15.8,25l-0.6-1.2L14,23.2l0.4-1.2L14,20.8l1.2-0.6l0.6-1.2l1.2,0.4l1.2-0.4l0.6,1.2l1.2,0.6L19.6,22l0.4,1.2l-1.2,0.6L18.2,25z M15.3,26.2l1-0.3l-1,2.1l-0.6-1l-1.1,0.2l1.1-2.2L15.3,26.2z M19.4,24.9l1.1,2.3L19.4,27l-0.6,1l-1-2.1l0.9,0.3L19.4,24.9z"></path></g></svg>