<?xml version="1.0" encoding="utf-8"?>
<!-- Generator: Adobe Illustrator 18.1.1, SVG Export Plug-In . SVG Version: 6.00 Build 0)  -->
<svg version="1.1" id="Layer_1" xmlns="http://www.w3.org/2000/svg" xmlns:xlink="http://www.w3.org/1999/xlink" x="0px" y="0px"
	 viewBox="0 0 128 128" enable-background="new 0 0 128 128" xml:space="preserve">
<path d="M127,106h-19V11c0-6.1-4.9-11-11-11H11C4.9,0,0,4.9,0,11v10c0,0.6,0.4,1,1,1h15v95c0,6.1,4.9,11,11,11h90
	c6.1,0,11-4.9,11-11v-10C128,106.4,127.6,106,127,106z M2,11c0-5,4-9,9-9h79.7C87.9,4,86,7.3,86,11v9H2V11z M27,126c-5,0-9-4-9-9V22
	h69c0.6,0,1-0.4,1-1V11c0-5,4-9,9-9s9,4,9,9v106c0,3.7,1.9,7,4.7,9H27z M126,117c0,5-4,9-9,9s-9-4-9-9v-9h18V117z M88,45H32v-4h56
	V45z M88,58H33v-2h55V58z M33,64h55v2H33V64z M78,74H33v-2h45V74z M84.5,103.5l3.5-1.8L86.8,98l1.2-3.7l-3.5-1.8L82.7,89L79,90.2
	L75.3,89l-1.8,3.5L70,94.3l1.2,3.7l-1.2,3.7l3.5,1.8l1.8,3.5l3.7-1.2l3.7,1.2L84.5,103.5z M79,103c-2.8,0-5-2.2-5-5s2.2-5,5-5
	s5,2.2,5,5S81.8,103,79,103z M83,98c0,2.2-1.8,4-4,4s-4-1.8-4-4c0-2.2,1.8-4,4-4S83,95.8,83,98z M74.8,108.2l2.7-0.9l-4.1,8.4
	l-1.7-3.1l-3.5,0.5l4.4-9l0.1,0.1L74.8,108.2z M85.4,104.2l4.4,9l-3.5-0.5l-1.7,3.1l-4.1-8.4l2.7,0.9l2-4L85.4,104.2z M62.6,97.9
	c-1,2.7-2.2,5.4-3.6,8l-0.1,0.2c0,0.1-0.1,0.2-0.1,0.3c0.2,0.8,0.3,1.8,0.2,2.8c0,0.2-0.1,0.5-0.3,0.8c-0.2,0.3-0.6,0.5-1,0.5
	c-0.4,0-0.9-0.2-1.1-0.6c-0.4-0.6-0.3-1.3-0.3-1.5c0.1-0.8,0.4-1.5,0.7-2.1c-0.1-0.3-0.2-0.5-0.3-0.8c-0.1,0-0.1,0.1-0.2,0.1
	c-0.2,0.1-0.4,0.3-0.7,0.4c-0.6,0.2-1.2,0.1-1.7-0.3c0,0.1-0.1,0.1-0.1,0.2c-0.1,0.2-0.4,0.6-0.8,0.7c-0.4,0.2-0.8,0.1-1.2-0.1
	c-0.1-0.1-0.2-0.1-0.3-0.2c-0.3,0.4-0.6,0.7-0.9,1c-0.2,0.2-0.9,0.9-1.8,0.8c-0.3-0.1-0.6-0.2-0.8-0.4c-0.4,1-0.9,1.9-1.6,2.6
	c-1.1,1.1-2.6,1.8-4,1.8c-0.5,0-1-0.1-1.5-0.2c-1.3-0.5-2.4-1.6-3.1-3.1c-0.5-1.1-0.7-2.4-0.6-4.1c0-3,0.7-5.5,2.1-7.4
	c1.2-1.7,2.9-2.7,4.5-2.6c1.1,0,1.9,0.6,2.1,1.4c0.2,0.6-0.2,1.4-0.9,1.7c-0.6,0.3-1.2,0.1-1.6-0.3c-0.3-0.4-0.2-0.9,0.2-1.1
	c0,0,0.1,0,0.1-0.1c-1.1-0.1-2.2,0.7-3.1,1.9c-1.2,1.7-1.8,3.8-1.8,6.5c0,1.4,0.1,2.5,0.5,3.4c0.4,1.1,1.2,1.9,2.1,2.2
	c1.2,0.4,2.7,0,3.8-1.1c0.8-0.8,1.4-2,1.7-3.5l-0.4-1c-0.1-0.3,0-0.7,0.3-0.9c0.4-0.3,0.8-0.3,1.2-0.1c0.5,0.3,0.8,1.1,0.7,1.7
	c0,0.1,0,0.1,0,0.2l0.2,0.4c0.2,0.5,0.3,0.5,0.3,0.6c0,0,0.1,0,0.4-0.3c0.8-0.8,1.4-1.7,1.8-2.6c0.2-0.4,0.7-0.6,1-0.4
	c0.4,0.2,0.6,0.6,0.4,1c-0.1,0.2-0.2,0.5-0.2,0.7c0.2-0.4,0.4-0.8,0.6-1.2c0-0.2,0.1-0.4,0.2-0.5c0.2-0.4,0.6-0.5,1-0.3
	c0.4,0.2,0.6,0.6,0.4,1c0,0.1-0.1,0.2-0.1,0.2c0,0.1,0,0.1,0.1,0.2c0.1,0.1,0.2,0.2,0.3,0.1c0.1,0,0.3-0.1,0.4-0.2
	c0.4-0.3,1.2-0.8,2-0.2c0.1,0.1,0.2,0.2,0.3,0.3c0,0,0,0,0,0c1.1-2.2,2.2-4.6,3-6.9c0.1-0.4,0.6-0.6,1-0.5
	C62.5,97,62.7,97.5,62.6,97.9z"/>
</svg>
