<?xml version="1.0" encoding="utf-8"?>
<!-- Generator: Adobe Illustrator 18.1.1, SVG Export Plug-In . SVG Version: 6.00 Build 0)  -->
<svg version="1.1" id="Layer_1" xmlns="http://www.w3.org/2000/svg" xmlns:xlink="http://www.w3.org/1999/xlink" x="0px" y="0px"
	 viewBox="0 0 32 32" enable-background="new 0 0 32 32" xml:space="preserve">
<path d="M31,25h-5V4c0-2.2-1.8-4-4-4H4C1.8,0,0,1.8,0,4v3c0,0.6,0.4,1,1,1h2v20c0,2.2,1.8,4,4,4h21c2.2,0,4-1.8,4-4v-2
	C32,25.4,31.6,25,31,25z M2,4c0-1.1,0.9-2,2-2h14.5C18.2,2.6,18,3.3,18,4v2H2V4z M7,30c-1.1,0-2-0.9-2-2V8h14c0.6,0,1-0.4,1-1V4
	c0-1.1,0.9-2,2-2s2,0.9,2,2v24c0,0.7,0.2,1.4,0.5,2H7z M30,28c0,1.1-0.9,2-2,2s-2-0.9-2-2v-1h4V28z M20,12H8v-2h12V12z M20,15H8v-1
	h12V15z M20,17H8v-1h12V17z M18.2,25L17,24.6L15.8,25l-0.6-1.2L14,23.2l0.4-1.2L14,20.8l1.2-0.6l0.6-1.2l1.2,0.4l1.2-0.4l0.6,1.2
	l1.2,0.6L19.6,22l0.4,1.2l-1.2,0.6L18.2,25z M15.3,26.2l1-0.3l-1,2.1l-0.6-1l-1.1,0.2l1.1-2.2L15.3,26.2z M19.4,24.9l1.1,2.3
	L19.4,27l-0.6,1l-1-2.1l0.9,0.3L19.4,24.9z"/>
</svg>
