<?xml version="1.0" encoding="utf-8"?>
<!-- Generator: Adobe Illustrator 18.1.1, SVG Export Plug-In . SVG Version: 6.00 Build 0)  -->
<svg version="1.1" id="Layer_1" xmlns="http://www.w3.org/2000/svg" xmlns:xlink="http://www.w3.org/1999/xlink" x="0px" y="0px"
	 viewBox="0 0 32 32" enable-background="new 0 0 32 32" xml:space="preserve">
<g>
	<path d="M2,4c0-2.2,6.3-4,14-4s14,1.8,14,4c0,2.2-6.3,4-14,4S2,6.2,2,4z M16,25c-7.7,0-14-2-14-4.5c0,0.5,0,6.5,0,7
		C2,30,8.3,32,16,32s14-2,14-4.5c0-0.5,0-6.5,0-7C30,23,23.7,25,16,25z M16,9C8.3,9,2,7.2,2,5c0,0.7,0,6.3,0,7c0,2.2,6.3,4,14,4
		s14-1.8,14-4c0-0.7,0-6.3,0-7C30,7.2,23.7,9,16,9z M16,17c-7.7,0-14-1.8-14-4c0,0.3,0,5.4,0,6.5C2,22,8.3,24,16,24s14-2,14-4.5
		c0-1.1,0-6.2,0-6.5C30,15.2,23.7,17,16,17z"/>
</g>
</svg>
