<?xml version="1.0" encoding="utf-8"?>
<!-- Generator: Adobe Illustrator 18.1.1, SVG Export Plug-In . SVG Version: 6.00 Build 0)  -->
<svg version="1.1" id="Layer_1" xmlns="http://www.w3.org/2000/svg" xmlns:xlink="http://www.w3.org/1999/xlink" x="0px" y="0px"
	 viewBox="0 0 16 16" enable-background="new 0 0 16 16" xml:space="preserve">
<g>
	<path d="M1,2c0-1.1,3.1-2,7-2s7,0.9,7,2c0,1.1-3.1,2-7,2S1,3.1,1,2z M8,12.5c-3.9,0-7-1-7-2.2c0,0.3,0,3.2,0,3.5C1,15,4.1,16,8,16
		c3.9,0,7-1,7-2.2c0-0.3,0-3.2,0-3.5C15,11.5,11.9,12.5,8,12.5z M8,4.5c-3.9,0-7-0.9-7-2C1,2.9,1,5.6,1,6c0,1.1,3.1,2,7,2
		c3.9,0,7-0.9,7-2c0-0.4,0-3.1,0-3.5C15,3.6,11.9,4.5,8,4.5z M8,8.5c-3.9,0-7-0.9-7-2c0,0.1,0,2.7,0,3.2C1,11,4.1,12,8,12
		c3.9,0,7-1,7-2.2c0-0.6,0-3.1,0-3.2C15,7.6,11.9,8.5,8,8.5z"/>
</g>
</svg>
