<?xml version="1.0" encoding="utf-8"?><!-- Generator: Adobe Illustrator 17.1.0, SVG Export Plug-In . SVG Version: 6.00 Build 0)  --><!DOCTYPE svg PUBLIC "-//W3C//DTD SVG 1.0//EN" "http://www.w3.org/TR/2001/REC-SVG-20010904/DTD/svg10.dtd"><svg xmlns="http://www.w3.org/2000/svg" xmlns:xlink="http://www.w3.org/1999/xlink" version="1.0" viewBox="0 0 128 128" preserveAspectRatio="none"><style> svg * { background-size: cover; background-repeat: no-repeat; } @media all and (max-width: 32px) { #group_1 { opacity: 1; } #group_2, #group_3 { opacity: 0; } } @media all and (min-width: 33px) and (max-width: 127px) { #group_2 { opacity: 1; } #group_1, #group_3 { opacity: 0; } } @media all and (min-width: 128px) { #group_3 { opacity: 1; } #group_1, #group_2 { opacity: 0; } } </style><g id="group_3"><g><path d="M64,30c30.9,0,56-6.7,56-15c0-8.3-25.1-15-56-15S8,6.7,8,15C8,23.3,33.1,30,64,30z M64,3c26.5,0,48,4.9,48,11S90.5,25,64,25s-48-4.9-48-11S37.5,3,64,3z M120,78.5c0,0.2,0,0.3,0,0.5c0,3.9,0,27.1,0,31c0,9.9-25.1,18-56,18s-56-8.1-56-18c0-3.9,0-27.1,0-31c0-0.2,0-0.3,0-0.5C8.9,88.2,33.6,96,64,96S119.1,88.2,120,78.5z M120,16c0,4.1,0,26.9,0,31c0,8.3-25.1,15-56,15S8,55.3,8,47c0-4.1,0-26.9,0-31c0,8.3,25.1,15,56,15S120,24.3,120,16z M120,48c0,2.2,0,26.3,0,29c0,9.9-25.1,18-56,18S8,86.9,8,77c0-2.7,0-26.8,0-29c0,8.3,25.1,15,56,15S120,56.3,120,48z M17,14C17,8.5,38,4,64,4s47,4.5,47,10S90,24,64,24S17,19.5,17,14z"></path></g></g><g transform="scale(8)" id="group_1"><g><path d="M1,2c0-1.1,3.1-2,7-2s7,0.9,7,2c0,1.1-3.1,2-7,2S1,3.1,1,2z M8,12.5c-3.9,0-7-1-7-2.2c0,0.3,0,3.2,0,3.5C1,15,4.1,16,8,16c3.9,0,7-1,7-2.2c0-0.3,0-3.2,0-3.5C15,11.5,11.9,12.5,8,12.5z M8,4.5c-3.9,0-7-0.9-7-2C1,2.9,1,5.6,1,6c0,1.1,3.1,2,7,2c3.9,0,7-0.9,7-2c0-0.4,0-3.1,0-3.5C15,3.6,11.9,4.5,8,4.5z M8,8.5c-3.9,0-7-0.9-7-2c0,0.1,0,2.7,0,3.2C1,11,4.1,12,8,12c3.9,0,7-1,7-2.2c0-0.6,0-3.1,0-3.2C15,7.6,11.9,8.5,8,8.5z"></path></g></g><g transform="scale(4)" id="group_2"><g><path d="M2,4c0-2.2,6.3-4,14-4s14,1.8,14,4c0,2.2-6.3,4-14,4S2,6.2,2,4z M16,25c-7.7,0-14-2-14-4.5c0,0.5,0,6.5,0,7C2,30,8.3,32,16,32s14-2,14-4.5c0-0.5,0-6.5,0-7C30,23,23.7,25,16,25z M16,9C8.3,9,2,7.2,2,5c0,0.7,0,6.3,0,7c0,2.2,6.3,4,14,4s14-1.8,14-4c0-0.7,0-6.3,0-7C30,7.2,23.7,9,16,9z M16,17c-7.7,0-14-1.8-14-4c0,0.3,0,5.4,0,6.5C2,22,8.3,24,16,24s14-2,14-4.5c0-1.1,0-6.2,0-6.5C30,15.2,23.7,17,16,17z"></path></g></g></svg>