<?xml version="1.0" encoding="utf-8"?>
<!-- Generator: Adobe Illustrator 18.1.1, SVG Export Plug-In . SVG Version: 6.00 Build 0)  -->
<svg version="1.1" id="Layer_1" xmlns="http://www.w3.org/2000/svg" xmlns:xlink="http://www.w3.org/1999/xlink" x="0px" y="0px"
	 viewBox="0 0 128 128" enable-background="new 0 0 128 128" xml:space="preserve">
<g>
	<path d="M64,30c30.9,0,56-6.7,56-15c0-8.3-25.1-15-56-15S8,6.7,8,15C8,23.3,33.1,30,64,30z M64,3c26.5,0,48,4.9,48,11
		S90.5,25,64,25s-48-4.9-48-11S37.5,3,64,3z M120,78.5c0,0.2,0,0.3,0,0.5c0,3.9,0,27.1,0,31c0,9.9-25.1,18-56,18s-56-8.1-56-18
		c0-3.9,0-27.1,0-31c0-0.2,0-0.3,0-0.5C8.9,88.2,33.6,96,64,96S119.1,88.2,120,78.5z M120,16c0,4.1,0,26.9,0,31c0,8.3-25.1,15-56,15
		S8,55.3,8,47c0-4.1,0-26.9,0-31c0,8.3,25.1,15,56,15S120,24.3,120,16z M120,48c0,2.2,0,26.3,0,29c0,9.9-25.1,18-56,18S8,86.9,8,77
		c0-2.7,0-26.8,0-29c0,8.3,25.1,15,56,15S120,56.3,120,48z M17,14C17,8.5,38,4,64,4s47,4.5,47,10S90,24,64,24S17,19.5,17,14z"/>
</g>
</svg>
