<?xml version="1.0" encoding="utf-8"?>
<!-- Generator: Adobe Illustrator 18.1.1, SVG Export Plug-In . SVG Version: 6.00 Build 0)  -->
<svg version="1.1" id="Layer_1" xmlns="http://www.w3.org/2000/svg" xmlns:xlink="http://www.w3.org/1999/xlink" x="0px" y="0px"
	 viewBox="0 0 32 32" enable-background="new 0 0 32 32" xml:space="preserve">
<path d="M32,9.7l-2,1.5v1.5l-13.5,9.9L2.2,16.8C2.1,16.6,2,16.1,2,15.4c0-1.8,1-2.1,1-2.1l13.3,5.3c0.2,0.1,0.5,0.1,0.8-0.1L31.7,8
	c0.1-0.1,0.1-0.3-0.1-0.4L17.1,3.2c-0.2-0.1-0.5,0-0.7,0.1l-15,8.6C1.2,12,0,12.7,0,15.4c0,1.6,0.7,2.8,0.7,2.8
	C0.5,18.6,0,19.6,0,21.1c0,2.4,0.9,3.1,1.1,3.1l14.8,6c0.2,0.1,0.4,0.1,0.6,0.1c0.4,0,0.7-0.1,1-0.3l14.1-10.3
	c0.3-0.2,0.4-0.5,0.4-0.8h0v-3.5L30,17v1.4l-13.5,9.9L2.2,22.6C2.1,22.3,2,21.8,2,21.1c0-1.6,0.6-2,0.6-2l13.3,5.4
	c0.2,0.1,0.4,0.1,0.6,0.1c0.4,0,0.7-0.1,1-0.3L31.6,14c0.3-0.2,0.4-0.5,0.4-0.8h0V9.7z M16,6.8l8.3,2.5l-4.9,3.1l-8.7-2.7L16,6.8z
	 M6,17.9v-2.3l3,1.2v2.3l-1.7-1.3L6,17.9z"/>
</svg>
