<?xml version="1.0" encoding="utf-8"?>
<!-- Generator: Adobe Illustrator 18.1.1, SVG Export Plug-In . SVG Version: 6.00 Build 0)  -->
<svg version="1.1" id="Layer_1" xmlns="http://www.w3.org/2000/svg" xmlns:xlink="http://www.w3.org/1999/xlink" x="0px" y="0px"
	 viewBox="0 0 16 16" enable-background="new 0 0 16 16" xml:space="preserve">
<path d="M16,4.4l-1,0.7V6l-6.8,5L1.1,8.1C1.1,7.9,1,7.5,1,7.2c0-0.9,0.4-1,0.4-1l6.7,2.7c0.1,0.1,0.3,0,0.4,0L16,3.5
	c0.1-0.1,0.1-0.2,0-0.2L8.6,1c-0.1,0-0.2,0-0.3,0L0.9,5.3C0.8,5.3,0,5.8,0,7.2c0,0.8,0.3,1.6,0.4,1.7C0.3,9,0,9.4,0,10.3
	c0,0.8,0.3,1.4,0.3,1.4c0.1,0.1,0.1,0.2,0.3,0.3l7.4,3C8.1,15,8.2,15,8.3,15c0.2,0,0.4-0.1,0.5-0.2l7-5.2C15.9,9.6,16,9.4,16,9.3h0
	V7.4l-1,0.7V9l-6.8,5l-7.1-2.9C1.1,10.9,1,10.6,1,10.3c0-0.8,0.4-1,0.4-1L8,11.9C8.1,12,8.2,12,8.3,12c0.2,0,0.4-0.1,0.5-0.2l7-5.2
	C15.9,6.6,16,6.4,16,6.3h0V4.4z M8,2.8l4.2,1.3L9.8,5.7L5.4,4.3L8,2.8z"/>
</svg>
