<?xml version="1.0" encoding="utf-8"?><!-- Generator: Adobe Illustrator 17.1.0, SVG Export Plug-In . SVG Version: 6.00 Build 0)  --><!DOCTYPE svg PUBLIC "-//W3C//DTD SVG 1.0//EN" "http://www.w3.org/TR/2001/REC-SVG-20010904/DTD/svg10.dtd"><svg xmlns="http://www.w3.org/2000/svg" xmlns:xlink="http://www.w3.org/1999/xlink" version="1.0" viewBox="0 0 128 128" preserveAspectRatio="none"><style> svg * { background-size: cover; background-repeat: no-repeat; } @media all and (max-width: 32px) { #group_1 { opacity: 1; } #group_2, #group_3 { opacity: 0; } } @media all and (min-width: 33px) and (max-width: 127px) { #group_2 { opacity: 1; } #group_1, #group_3 { opacity: 0; } } @media all and (min-width: 128px) { #group_3 { opacity: 1; } #group_1, #group_2 { opacity: 0; } } </style><g id="group_3"><path d="M66.2,89.6l57.4-41.4c0.1-0.1,0.3-0.1,0.3,0.1c0.1,0.1,0.1,0.3-0.1,0.3L66.4,90.1c0,0-0.1,0-0.1,0c0,0-0.1,0-0.1,0L4.5,65.1c-0.1-0.1-0.2-0.2-0.1-0.3c0.1-0.1,0.2-0.2,0.3-0.1L66.2,89.6z M123.9,46.2c-0.1-0.1-0.2-0.1-0.3-0.1L66.2,87.6L4.1,62.3c-0.1-0.1-0.3,0-0.3,0.1c-0.1,0.1,0,0.3,0.1,0.3l62.3,25.3c0,0,0.1,0,0.1,0c0.1,0,0.1,0,0.1,0l57.5-41.5C124,46.5,124,46.3,123.9,46.2z M123.9,42.1c-0.1-0.1-0.2-0.1-0.3-0.1L66.2,83.5L27.1,67.6c-0.1-0.1-0.3,0-0.3,0.1c-0.1,0.1,0,0.3,0.1,0.3L66.1,84c0,0,0.1,0,0.1,0c0.1,0,0.1,0,0.1,0l57.5-41.5C124,42.4,124,42.2,123.9,42.1z M123.9,38c-0.1-0.1-0.2-0.1-0.3-0.1L66.2,79.4L27.1,63.5c-0.1-0.1-0.3,0-0.3,0.1c-0.1,0.1,0,0.3,0.1,0.3l39.2,15.9c0,0,0.1,0,0.1,0c0.1,0,0.1,0,0.1,0l57.5-41.5C124,38.3,124,38.1,123.9,38z M123.9,33.9c-0.1-0.1-0.2-0.1-0.3-0.1L66.2,75.3L27.1,59.4c-0.1-0.1-0.3,0-0.3,0.1c-0.1,0.1,0,0.3,0.1,0.3l39.2,15.9c0,0,0.1,0,0.1,0c0.1,0,0.1,0,0.1,0l57.5-41.5C124,34.2,124,34,123.9,33.9z M123.9,44.2c-0.1-0.1-0.2-0.1-0.3-0.1L66.2,85.5L27.1,69.6c-0.1-0.1-0.3,0-0.3,0.1c-0.1,0.1,0,0.3,0.1,0.3l39.2,16c0,0,0.1,0,0.1,0c0.1,0,0.1,0,0.1,0l57.5-41.5C124,44.4,124,44.3,123.9,44.2z M3.6,60.1c-0.1-0.1-0.3,0-0.3,0.1c-0.1,0.1,0,0.3,0.1,0.3L17,66v1.1l4-1.4l2.3,2.3L20,66.7c-0.1-0.1-0.3,0-0.3,0.1c-0.1,0.1,0,0.3,0.1,0.3l4.4,1.8l1.8,1.8V59c0-0.2-0.1-0.4-0.3-0.4l-8.1-3.2c-0.1-0.1-0.3,0-0.4,0L4.2,50.1c-0.1-0.1-0.3,0-0.3,0.1c-0.1,0.1,0,0.3,0.1,0.3l13,5.3v1.5L3.7,51.9c-0.1-0.1-0.3,0-0.3,0.1c-0.1,0.1,0,0.3,0.1,0.3L17,57.9v1.5L3.3,53.9c-0.1-0.1-0.3,0-0.3,0.1c-0.1,0.1,0,0.3,0.1,0.3L17,59.9v1.4L3.2,55.8c-0.1-0.1-0.3,0-0.3,0.1c-0.1,0.1,0,0.3,0.1,0.3l14,5.7v1.6L3.2,57.9c-0.1-0.1-0.3,0-0.3,0.1c-0.1,0.1,0,0.3,0.1,0.3L17,64v1.5L3.6,60.1z M123.9,40.1c-0.1-0.1-0.2-0.1-0.3-0.1L66.2,81.4L27.1,65.5c-0.1-0.1-0.3,0-0.3,0.1s0,0.3,0.1,0.3l39.2,16c0,0,0.1,0,0.1,0c0.1,0,0.1,0,0.1,0l57.5-41.5C124,40.3,124,40.2,123.9,40.1z M123.9,36c-0.1-0.1-0.2-0.1-0.3-0.1L66.2,77.3L27.1,61.4c-0.1-0.1-0.3,0-0.3,0.1c-0.1,0.1,0,0.3,0.1,0.3l39.2,15.9c0,0,0.1,0,0.1,0c0.1,0,0.1,0,0.1,0l57.5-41.5C124,36.2,124,36.1,123.9,36z M123.9,31.9c-0.1-0.1-0.2-0.1-0.3-0.1L66.2,73.2l-61.5-25c-0.1-0.1-0.3,0-0.3,0.1c-0.1,0.1,0,0.3,0.1,0.3l61.6,25.1c0,0,0.1,0,0.1,0c0.1,0,0.1,0,0.1,0l57.5-41.5C124,32.1,124,32,123.9,31.9z M4.7,88.3c-0.1-0.1-0.3,0-0.3,0.1c-0.1,0.1,0,0.3,0.1,0.3l61.6,25.1c0,0,0.1,0,0.1,0c0.1,0,0.1,0,0.1,0l57.5-41.5c0.1-0.1,0.1-0.2,0.1-0.3c-0.1-0.1-0.2-0.1-0.3-0.1l-57.4,41.4L4.7,88.3z M123.9,65.8c-0.1-0.1-0.2-0.1-0.3-0.1l-57.4,41.4l-63-25.6c-0.1-0.1-0.3,0-0.3,0.1c-0.1,0.1,0,0.3,0.1,0.3l63.2,25.6c0,0,0.1,0,0.1,0c0.1,0,0.1,0,0.1,0l57.5-41.5C124,66.1,124,65.9,123.9,65.8z M123.9,61.7c-0.1-0.1-0.2-0.1-0.3-0.1L66.2,103L3.3,77.5c-0.1-0.1-0.3,0-0.3,0.1C3,77.8,3,77.9,3.2,78l63,25.6c0,0,0.1,0,0.1,0c0.1,0,0.1,0,0.1,0L123.9,62C124,61.9,124,61.8,123.9,61.7z M123.9,57.6c-0.1-0.1-0.2-0.1-0.3-0.1L66.2,98.9l-62-25.2c-0.1-0.1-0.3,0-0.3,0.1c-0.1,0.1,0,0.3,0.1,0.3l62.2,25.3c0,0,0.1,0,0.1,0c0.1,0,0.1,0,0.1,0l57.5-41.5C124,57.8,124,57.7,123.9,57.6z M123.9,69.9c-0.1-0.1-0.2-0.1-0.3-0.1l-57.4,41.4L3.6,85.8c-0.1-0.1-0.3,0-0.3,0.1c-0.1,0.1,0,0.3,0.1,0.3l62.7,25.5c0,0,0.1,0,0.1,0c0.1,0,0.1,0,0.1,0l57.5-41.5C124,70.2,124,70,123.9,69.9z M123.9,67.8c-0.1-0.1-0.2-0.1-0.3-0.1l-57.4,41.4L3.1,83.5c-0.1-0.1-0.3,0-0.3,0.1c-0.1,0.1,0,0.3,0.1,0.3l63.2,25.7c0,0,0.1,0,0.1,0c0.1,0,0.1,0,0.1,0l57.5-41.5C124,68.1,124,67.9,123.9,67.8z M123.9,63.7c-0.1-0.1-0.2-0.1-0.3-0.1l-57.4,41.4l-63-25.6c-0.1-0.1-0.3,0-0.3,0.1c-0.1,0.1,0,0.3,0.1,0.3l63.1,25.7c0,0,0.1,0,0.1,0c0.1,0,0.1,0,0.1,0l57.5-41.5C124,64,124,63.8,123.9,63.7z M123.9,59.6c-0.1-0.1-0.2-0.1-0.3-0.1L66.2,101L3.7,75.6c-0.1-0.1-0.3,0-0.3,0.1c-0.1,0.1,0,0.3,0.1,0.3l62.6,25.5c0,0,0.1,0,0.1,0c0.1,0,0.1,0,0.1,0L123.9,60C124,59.9,124,59.7,123.9,59.6z M123.9,55.5c-0.1-0.1-0.2-0.1-0.3-0.1L66.2,96.9L5.3,72.1c-0.1-0.1-0.3,0-0.3,0.1c-0.1,0.1,0,0.3,0.1,0.3l61,24.8c0,0,0.1,0,0.1,0c0.1,0,0.1,0,0.1,0l57.5-41.5C124,55.8,124,55.6,123.9,55.5z M127.7,72.2c0.1,0.7-0.2,1.4-0.8,1.8l-58.6,42.6c-0.7,0.5-1.4,0.7-2.3,0.7c-0.5,0-1-0.1-1.5-0.3l-62-25.2c-0.2-0.1-0.4-0.2-0.5-0.4C2.1,91.3,0,87.7,0,81.7c0-9.3,3.9-12.2,4-12.3c0.1-0.1,0.2-0.1,0.3-0.2l0.9-0.2l-2.5-1c-0.2-0.1-0.4-0.2-0.5-0.4C2.1,67.3,0,63.7,0,57.7c0-7.3,2.7-11.1,2.8-11.3c0.1-0.1,0.2-0.2,0.3-0.3l62.5-35.8c0.8-0.5,1.8-0.6,2.7-0.3l58.1,17.8c0.7,0.2,0.8,1.1,0.3,1.5L68,71.3c-0.9,0.6-2,0.8-3,0.4L4.8,47.5l-0.4,0.3C3.9,48.5,2,51.8,2,57.7c0,4.6,1.3,7.6,1.8,8.5l61.7,25c0.6,0.2,1.3,0.2,1.8-0.2l58.5-42.5l-1.2-0.4c-0.5-0.2-0.8-0.7-0.6-1.3c0.2-0.5,0.8-0.8,1.3-0.6l1.3,0.5c0.7,0.2,1.2,0.8,1.3,1.5c0.1,0.7-0.2,1.4-0.8,1.8l-1,0.7c0.3,0,0.6,0.1,0.8,0.4c0.3,0.4,0.2,1.1-0.2,1.4L68.4,94.6c-0.6,0.4-1.4,0.7-2.2,0.7c-0.5,0-1.1-0.1-1.6-0.3L5.7,70.9L5.1,71C4.5,71.6,2,74.4,2,81.7c0,4.6,1.3,7.6,1.8,8.5l61.7,25c0.6,0.2,1.3,0.2,1.8-0.2l58.5-42.5l-1.2-0.4c-0.5-0.2-0.8-0.7-0.6-1.3c0.2-0.5,0.7-0.8,1.3-0.6l1.3,0.5C127.1,70.9,127.6,71.5,127.7,72.2z M43.9,35.8l33.8,11.1l19.6-12.5L64,24.3L43.9,35.8z"></path></g><g transform="scale(8)" id="group_1"><path d="M16,4.4l-1,0.7V6l-6.8,5L1.1,8.1C1.1,7.9,1,7.5,1,7.2c0-0.9,0.4-1,0.4-1l6.7,2.7c0.1,0.1,0.3,0,0.4,0L16,3.5c0.1-0.1,0.1-0.2,0-0.2L8.6,1c-0.1,0-0.2,0-0.3,0L0.9,5.3C0.8,5.3,0,5.8,0,7.2c0,0.8,0.3,1.6,0.4,1.7C0.3,9,0,9.4,0,10.3c0,0.8,0.3,1.4,0.3,1.4c0.1,0.1,0.1,0.2,0.3,0.3l7.4,3C8.1,15,8.2,15,8.3,15c0.2,0,0.4-0.1,0.5-0.2l7-5.2C15.9,9.6,16,9.4,16,9.3h0V7.4l-1,0.7V9l-6.8,5l-7.1-2.9C1.1,10.9,1,10.6,1,10.3c0-0.8,0.4-1,0.4-1L8,11.9C8.1,12,8.2,12,8.3,12c0.2,0,0.4-0.1,0.5-0.2l7-5.2C15.9,6.6,16,6.4,16,6.3h0V4.4z M8,2.8l4.2,1.3L9.8,5.7L5.4,4.3L8,2.8z"></path></g><g transform="scale(4)" id="group_2"><path d="M32,9.7l-2,1.5v1.5l-13.5,9.9L2.2,16.8C2.1,16.6,2,16.1,2,15.4c0-1.8,1-2.1,1-2.1l13.3,5.3c0.2,0.1,0.5,0.1,0.8-0.1L31.7,8c0.1-0.1,0.1-0.3-0.1-0.4L17.1,3.2c-0.2-0.1-0.5,0-0.7,0.1l-15,8.6C1.2,12,0,12.7,0,15.4c0,1.6,0.7,2.8,0.7,2.8C0.5,18.6,0,19.6,0,21.1c0,2.4,0.9,3.1,1.1,3.1l14.8,6c0.2,0.1,0.4,0.1,0.6,0.1c0.4,0,0.7-0.1,1-0.3l14.1-10.3c0.3-0.2,0.4-0.5,0.4-0.8h0v-3.5L30,17v1.4l-13.5,9.9L2.2,22.6C2.1,22.3,2,21.8,2,21.1c0-1.6,0.6-2,0.6-2l13.3,5.4c0.2,0.1,0.4,0.1,0.6,0.1c0.4,0,0.7-0.1,1-0.3L31.6,14c0.3-0.2,0.4-0.5,0.4-0.8h0V9.7z M16,6.8l8.3,2.5l-4.9,3.1l-8.7-2.7L16,6.8z M6,17.9v-2.3l3,1.2v2.3l-1.7-1.3L6,17.9z"></path></g></svg>