<?xml version="1.0" encoding="utf-8"?>
<!-- Generator: Adobe Illustrator 18.1.1, SVG Export Plug-In . SVG Version: 6.00 Build 0)  -->
<svg version="1.1" id="Layer_1" xmlns="http://www.w3.org/2000/svg" xmlns:xlink="http://www.w3.org/1999/xlink" x="0px" y="0px"
	 viewBox="0 0 16 16" enable-background="new 0 0 16 16" xml:space="preserve">
<path d="M8,0C3.6,0,0,3.6,0,8c0,4.4,3.6,8,8,8c4.4,0,8-3.6,8-8C16,3.6,12.4,0,8,0z M8,15c-3.8,0-7-3.1-7-7c0-3.8,3.1-7,7-7
	c3.8,0,7,3.1,7,7C15,11.8,11.8,15,8,15z M7,7H9v0.2c-0.2,0-0.4,0.1-0.4,0.2v4.1c0,0.1,0.1,0.2,0.4,0.2V12H7v-0.2c0.1,0,0.2,0,0.3,0
	c0.1,0,0.1-0.1,0.1-0.1V7.5c0-0.1,0-0.1-0.1-0.1c-0.1,0-0.1,0-0.3,0V7z M9,5c0,0.6-0.4,1-1,1S7,5.6,7,5c0-0.6,0.4-1,1-1S9,4.4,9,5z"
	/>
</svg>
