<?xml version="1.0" encoding="utf-8"?><!-- Generator: Adobe Illustrator 17.1.0, SVG Export Plug-In . SVG Version: 6.00 Build 0)  --><!DOCTYPE svg PUBLIC "-//W3C//DTD SVG 1.0//EN" "http://www.w3.org/TR/2001/REC-SVG-20010904/DTD/svg10.dtd"><svg xmlns="http://www.w3.org/2000/svg" xmlns:xlink="http://www.w3.org/1999/xlink" version="1.0" viewBox="0 0 128 128" preserveAspectRatio="none"><style> svg * { background-size: cover; background-repeat: no-repeat; } @media all and (max-width: 32px) { #group_1 { opacity: 1; } #group_2, #group_3 { opacity: 0; } } @media all and (min-width: 33px) and (max-width: 127px) { #group_2 { opacity: 1; } #group_1, #group_3 { opacity: 0; } } @media all and (min-width: 128px) { #group_3 { opacity: 1; } #group_1, #group_2 { opacity: 0; } } </style><g id="group_3"><path d="M64,0C28.7,0,0,28.7,0,64c0,35.3,28.7,64,64,64c35.3,0,64-28.7,64-64C128,28.7,99.3,0,64,0z M64,122C32,122,6,96,6,64S32,6,64,6s58,26,58,58S96,122,64,122z M64,7.5C32.8,7.5,7.5,32.8,7.5,64s25.3,56.5,56.5,56.5s56.5-25.3,56.5-56.5S95.2,7.5,64,7.5z M64,118.5C33.9,118.5,9.5,94.1,9.5,64C9.5,33.9,33.9,9.5,64,9.5c30.1,0,54.5,24.4,54.5,54.5C118.5,94.1,94.1,118.5,64,118.5z M57.4,54.1h13.2v1.6c-1.6,0-2.4,0.4-2.4,1.3v32.6c0,0.9,0.8,1.3,2.4,1.3v1.6H57.4v-1.6c0.9,0,1.6-0.1,1.9-0.3c0.3-0.2,0.5-0.5,0.5-1V57c0-0.5-0.2-0.8-0.5-1c-0.3-0.2-1-0.3-1.9-0.3V54.1z M58,44c0-3.3,2.7-6,6-6s6,2.7,6,6s-2.7,6-6,6S58,47.3,58,44z"></path></g><g transform="scale(8)" id="group_1"><path d="M8,0C3.6,0,0,3.6,0,8c0,4.4,3.6,8,8,8c4.4,0,8-3.6,8-8C16,3.6,12.4,0,8,0z M8,15c-3.8,0-7-3.1-7-7c0-3.8,3.1-7,7-7c3.8,0,7,3.1,7,7C15,11.8,11.8,15,8,15z M7,7H9v0.2c-0.2,0-0.4,0.1-0.4,0.2v4.1c0,0.1,0.1,0.2,0.4,0.2V12H7v-0.2c0.1,0,0.2,0,0.3,0c0.1,0,0.1-0.1,0.1-0.1V7.5c0-0.1,0-0.1-0.1-0.1c-0.1,0-0.1,0-0.3,0V7z M9,5c0,0.6-0.4,1-1,1S7,5.6,7,5c0-0.6,0.4-1,1-1S9,4.4,9,5z"></path></g><g transform="scale(4)" id="group_2"><path d="M16,0C7.2,0,0,7.2,0,16s7.2,16,16,16s16-7.2,16-16S24.8,0,16,0z M16,30C8.3,30,2,23.7,2,16S8.3,2,16,2s14,6.3,14,14S23.7,30,16,30z M14.4,14h3.1v0.4c-0.4,0-0.6,0.1-0.6,0.3v7.6c0,0.2,0.2,0.3,0.6,0.3V23h-3.1v-0.4c0.2,0,0.4,0,0.5-0.1c0.1,0,0.1-0.1,0.1-0.2v-7.6c0-0.1,0-0.2-0.1-0.2c-0.1,0-0.2-0.1-0.5-0.1V14z M14.5,10.5C14.5,9.7,15.2,9,16,9s1.5,0.7,1.5,1.5S16.8,12,16,12S14.5,11.3,14.5,10.5z"></path></g></svg>