<?xml version="1.0" encoding="utf-8"?>
<!-- Generator: Adobe Illustrator 18.1.1, SVG Export Plug-In . SVG Version: 6.00 Build 0)  -->
<svg version="1.1" id="Layer_1" xmlns="http://www.w3.org/2000/svg" xmlns:xlink="http://www.w3.org/1999/xlink" x="0px" y="0px"
	 viewBox="0 0 32 32" enable-background="new 0 0 32 32" xml:space="preserve">
<path d="M16,0C7.2,0,0,7.2,0,16s7.2,16,16,16s16-7.2,16-16S24.8,0,16,0z M16,30C8.3,30,2,23.7,2,16S8.3,2,16,2s14,6.3,14,14
	S23.7,30,16,30z M14.4,14h3.1v0.4c-0.4,0-0.6,0.1-0.6,0.3v7.6c0,0.2,0.2,0.3,0.6,0.3V23h-3.1v-0.4c0.2,0,0.4,0,0.5-0.1
	c0.1,0,0.1-0.1,0.1-0.2v-7.6c0-0.1,0-0.2-0.1-0.2c-0.1,0-0.2-0.1-0.5-0.1V14z M14.5,10.5C14.5,9.7,15.2,9,16,9s1.5,0.7,1.5,1.5
	S16.8,12,16,12S14.5,11.3,14.5,10.5z"/>
</svg>
