<?xml version="1.0" encoding="utf-8"?>
<!-- Generator: Adobe Illustrator 18.1.1, SVG Export Plug-In . SVG Version: 6.00 Build 0)  -->
<svg version="1.1" id="Layer_1" xmlns="http://www.w3.org/2000/svg" xmlns:xlink="http://www.w3.org/1999/xlink" x="0px" y="0px"
	 viewBox="0 0 128 128" enable-background="new 0 0 128 128" xml:space="preserve">
<path d="M64,0C28.7,0,0,28.7,0,64c0,35.3,28.7,64,64,64c35.3,0,64-28.7,64-64C128,28.7,99.3,0,64,0z M64,122C32,122,6,96,6,64
	S32,6,64,6s58,26,58,58S96,122,64,122z M64,7.5C32.8,7.5,7.5,32.8,7.5,64s25.3,56.5,56.5,56.5s56.5-25.3,56.5-56.5S95.2,7.5,64,7.5z
	 M64,118.5C33.9,118.5,9.5,94.1,9.5,64C9.5,33.9,33.9,9.5,64,9.5c30.1,0,54.5,24.4,54.5,54.5C118.5,94.1,94.1,118.5,64,118.5z
	 M57.4,54.1h13.2v1.6c-1.6,0-2.4,0.4-2.4,1.3v32.6c0,0.9,0.8,1.3,2.4,1.3v1.6H57.4v-1.6c0.9,0,1.6-0.1,1.9-0.3
	c0.3-0.2,0.5-0.5,0.5-1V57c0-0.5-0.2-0.8-0.5-1c-0.3-0.2-1-0.3-1.9-0.3V54.1z M58,44c0-3.3,2.7-6,6-6s6,2.7,6,6s-2.7,6-6,6
	S58,47.3,58,44z"/>
</svg>
