<?xml version="1.0" encoding="utf-8"?><!-- Generator: Adobe Illustrator 17.1.0, SVG Export Plug-In . SVG Version: 6.00 Build 0)  --><!DOCTYPE svg PUBLIC "-//W3C//DTD SVG 1.0//EN" "http://www.w3.org/TR/2001/REC-SVG-20010904/DTD/svg10.dtd"><svg xmlns="http://www.w3.org/2000/svg" xmlns:xlink="http://www.w3.org/1999/xlink" version="1.0" viewBox="0 0 128 128" preserveAspectRatio="none"><style> svg * { background-size: cover; background-repeat: no-repeat; } @media all and (max-width: 32px) { #group_1 { opacity: 1; } #group_2, #group_3 { opacity: 0; } } @media all and (min-width: 33px) and (max-width: 127px) { #group_2 { opacity: 1; } #group_1, #group_3 { opacity: 0; } } @media all and (min-width: 128px) { #group_3 { opacity: 1; } #group_1, #group_2 { opacity: 0; } } </style><g id="group_3"><path d="M126,17H2c-1.1,0-2,0.9-2,2v90c0,1.1,0.9,2,2,2h124c1.1,0,2-0.9,2-2V19C128,17.9,127.1,17,126,17z M124,107H4V21h120V107z M120,25H8v78h112V25z M114,97H14V31h100V97z M5,23.1V22h1.1c0.6,0,1,0.4,1,1c0,0.3-0.1,0.6-0.3,0.8C6.6,24,6.3,24.1,6,24.1C5.4,24.1,5,23.7,5,23.1z M5,42v-0.2c0-0.6,0.4-1,1-1s1,0.4,1,1V42c0,0.6-0.4,1-1,1S5,42.6,5,42z M5,48.3v-0.2c0-0.6,0.4-1,1-1s1,0.4,1,1v0.2c0,0.6-0.4,1-1,1S5,48.9,5,48.3z M5,45.2V45c0-0.6,0.4-1,1-1s1,0.4,1,1v0.2c0,0.6-0.4,1-1,1S5,45.7,5,45.2z M5,54.6v-0.2c0-0.6,0.4-1,1-1s1,0.4,1,1v0.2c0,0.6-0.4,1-1,1S5,55.2,5,54.6z M5,51.5v-0.2c0-0.6,0.4-1,1-1s1,0.4,1,1v0.2c0,0.6-0.4,1-1,1S5,52,5,51.5z M5,38.9v-0.2c0-0.6,0.4-1,1-1s1,0.4,1,1v0.2c0,0.6-0.4,1-1,1S5,39.4,5,38.9z M5,29.4v-0.2c0-0.6,0.4-1,1-1s1,0.4,1,1v0.2c0,0.6-0.4,1-1,1S5,30,5,29.4z M5,26.3v-0.2c0-0.6,0.4-1,1-1s1,0.4,1,1v0.2c0,0.6-0.4,1-1,1S5,26.8,5,26.3z M5,35.7v-0.2c0-0.6,0.4-1,1-1s1,0.4,1,1v0.2c0,0.6-0.4,1-1,1S5,36.3,5,35.7z M5,32.6v-0.2c0-0.6,0.4-1,1-1s1,0.4,1,1v0.2c0,0.6-0.4,1-1,1S5,33.1,5,32.6z M5,57.8v-0.2c0-0.6,0.4-1,1-1s1,0.4,1,1v0.2c0,0.6-0.4,1-1,1S5,58.3,5,57.8z M5,73.6v-0.2c0-0.6,0.4-1,1-1s1,0.4,1,1v0.2c0,0.6-0.4,1-1,1S5,74.1,5,73.6z M5,83v-0.2c0-0.6,0.4-1,1-1s1,0.4,1,1V83c0,0.6-0.4,1-1,1S5,83.6,5,83z M5,89.3v-0.2c0-0.6,0.4-1,1-1s1,0.4,1,1v0.2c0,0.6-0.4,1-1,1S5,89.9,5,89.3z M5,86.2V86c0-0.6,0.4-1,1-1s1,0.4,1,1v0.2c0,0.6-0.4,1-1,1S5,86.7,5,86.2z M5,92.5v-0.2c0-0.6,0.4-1,1-1s1,0.4,1,1v0.2c0,0.6-0.4,1-1,1S5,93,5,92.5z M5,95.6v-0.2c0-0.6,0.4-1,1-1s1,0.4,1,1v0.2c0,0.6-0.4,1-1,1S5,96.2,5,95.6z M5,101.9v-0.2c0-0.6,0.4-1,1-1s1,0.4,1,1v0.2c0,0.6-0.4,1-1,1S5,102.5,5,101.9z M5,98.8v-0.2c0-0.6,0.4-1,1-1s1,0.4,1,1v0.2c0,0.6-0.4,1-1,1S5,99.3,5,98.8z M5,70.4v-0.2c0-0.6,0.4-1,1-1s1,0.4,1,1v0.2c0,0.6-0.4,1-1,1S5,71,5,70.4z M5,67.3v-0.2c0-0.6,0.4-1,1-1s1,0.4,1,1v0.2c0,0.6-0.4,1-1,1S5,67.8,5,67.3z M5,60.9v-0.2c0-0.6,0.4-1,1-1s1,0.4,1,1v0.2c0,0.6-0.4,1-1,1S5,61.5,5,60.9z M5,79.9v-0.2c0-0.6,0.4-1,1-1s1,0.4,1,1v0.2c0,0.6-0.4,1-1,1S5,80.4,5,79.9z M5,64.1v-0.2c0-0.6,0.4-1,1-1s1,0.4,1,1v0.2c0,0.6-0.4,1-1,1S5,64.7,5,64.1z M5,76.7v-0.2c0-0.6,0.4-1,1-1s1,0.4,1,1v0.2c0,0.6-0.4,1-1,1S5,77.3,5,76.7z M6.1,106H5v-1c0-0.6,0.4-1,1-1c0.2,0,0.4,0.1,0.6,0.2c0.3,0.2,0.5,0.5,0.5,0.9C7.1,105.6,6.7,106,6.1,106z M81.2,105c0,0.6-0.4,1-1,1H80c-0.6,0-1-0.4-1-1s0.4-1,1-1h0.2C80.8,104,81.2,104.4,81.2,105z M78,105c0,0.6-0.4,1-1,1h-0.2c-0.6,0-1-0.4-1-1s0.4-1,1-1H77C77.5,104,78,104.4,78,105z M87.7,105c0,0.6-0.4,1-1,1h-0.2c-0.6,0-1-0.4-1-1s0.4-1,1-1h0.2C87.2,104,87.7,104.4,87.7,105z M84.4,105c0,0.6-0.4,1-1,1h-0.2c-0.6,0-1-0.4-1-1s0.4-1,1-1h0.2C84,104,84.4,104.4,84.4,105z M90.9,105c0,0.6-0.4,1-1,1h-0.2c-0.6,0-1-0.4-1-1s0.4-1,1-1h0.2C90.4,104,90.9,104.4,90.9,105z M65.1,105c0,0.6-0.4,1-1,1h-0.2c-0.6,0-1-0.4-1-1s0.4-1,1-1h0.2C64.7,104,65.1,104.4,65.1,105z M68.3,105c0,0.6-0.4,1-1,1h-0.2c-0.6,0-1-0.4-1-1s0.4-1,1-1h0.2C67.9,104,68.3,104.4,68.3,105z M71.5,105c0,0.6-0.4,1-1,1h-0.2c-0.6,0-1-0.4-1-1s0.4-1,1-1h0.2C71.1,104,71.5,104.4,71.5,105z M74.8,105c0,0.6-0.4,1-1,1h-0.2c-0.6,0-1-0.4-1-1s0.4-1,1-1h0.2C74.3,104,74.8,104.4,74.8,105z M94.1,105c0,0.6-0.4,1-1,1h-0.2c-0.6,0-1-0.4-1-1s0.4-1,1-1h0.2C93.7,104,94.1,104.4,94.1,105z M113.4,105c0,0.6-0.4,1-1,1h-0.2c-0.6,0-1-0.4-1-1s0.4-1,1-1h0.2C113,104,113.4,104.4,113.4,105z M116.7,105c0,0.6-0.4,1-1,1h-0.2c-0.6,0-1-0.4-1-1s0.4-1,1-1h0.2C116.2,104,116.7,104.4,116.7,105z M107,105c0,0.6-0.4,1-1,1h-0.2c-0.6,0-1-0.4-1-1s0.4-1,1-1h0.2C106.5,104,107,104.4,107,105z M110.2,105c0,0.6-0.4,1-1,1H109c-0.6,0-1-0.4-1-1s0.4-1,1-1h0.2C109.8,104,110.2,104.4,110.2,105z M103.8,105c0,0.6-0.4,1-1,1h-0.2c-0.6,0-1-0.4-1-1s0.4-1,1-1h0.2C103.3,104,103.8,104.4,103.8,105z M97.3,105c0,0.6-0.4,1-1,1h-0.2c-0.6,0-1-0.4-1-1s0.4-1,1-1h0.2C96.9,104,97.3,104.4,97.3,105z M100.5,105c0,0.6-0.4,1-1,1h-0.2c-0.6,0-1-0.4-1-1s0.4-1,1-1h0.2C100.1,104,100.5,104.4,100.5,105z M13.5,105c0,0.6-0.4,1-1,1h-0.2c-0.6,0-1-0.4-1-1s0.4-1,1-1h0.2C13.1,104,13.5,104.4,13.5,105z M23.2,105c0,0.6-0.4,1-1,1H22c-0.6,0-1-0.4-1-1s0.4-1,1-1h0.2C22.8,104,23.2,104.4,23.2,105z M20,105c0,0.6-0.4,1-1,1h-0.2c-0.6,0-1-0.4-1-1s0.4-1,1-1H19C19.5,104,20,104.4,20,105z M26.4,105c0,0.6-0.4,1-1,1h-0.2c-0.6,0-1-0.4-1-1s0.4-1,1-1h0.2C26,104,26.4,104.4,26.4,105z M29.7,105c0,0.6-0.4,1-1,1h-0.2c-0.6,0-1-0.4-1-1s0.4-1,1-1h0.2C29.2,104,29.7,104.4,29.7,105z M10.3,105c0,0.6-0.4,1-1,1H9.1c-0.6,0-1-0.4-1-1s0.4-1,1-1h0.2C9.9,104,10.3,104.4,10.3,105z M32.9,105c0,0.6-0.4,1-1,1h-0.2c-0.6,0-1-0.4-1-1s0.4-1,1-1h0.2C32.4,104,32.9,104.4,32.9,105z M16.8,105c0,0.6-0.4,1-1,1h-0.2c-0.6,0-1-0.4-1-1s0.4-1,1-1h0.2C16.3,104,16.8,104.4,16.8,105z M119.9,105c0,0.6-0.4,1-1,1h-0.2c-0.6,0-1-0.4-1-1s0.4-1,1-1h0.2C119.4,104,119.9,104.4,119.9,105z M36.1,105c0,0.6-0.4,1-1,1h-0.2c-0.6,0-1-0.4-1-1s0.4-1,1-1h0.2C35.7,104,36.1,104.4,36.1,105z M52.2,105c0,0.6-0.4,1-1,1H51c-0.6,0-1-0.4-1-1s0.4-1,1-1h0.2C51.8,104,52.2,104.4,52.2,105z M55.4,105c0,0.6-0.4,1-1,1h-0.2c-0.6,0-1-0.4-1-1s0.4-1,1-1h0.2C55,104,55.4,104.4,55.4,105z M49,105c0,0.6-0.4,1-1,1h-0.2c-0.6,0-1-0.4-1-1s0.4-1,1-1H48C48.5,104,49,104.4,49,105z M58.7,105c0,0.6-0.4,1-1,1h-0.2c-0.6,0-1-0.4-1-1s0.4-1,1-1h0.2C58.2,104,58.7,104.4,58.7,105z M45.8,105c0,0.6-0.4,1-1,1h-0.2c-0.6,0-1-0.4-1-1s0.4-1,1-1h0.2C45.3,104,45.8,104.4,45.8,105z M61.9,105c0,0.6-0.4,1-1,1h-0.2c-0.6,0-1-0.4-1-1s0.4-1,1-1h0.2C61.4,104,61.9,104.4,61.9,105z M39.3,105c0,0.6-0.4,1-1,1h-0.2c-0.6,0-1-0.4-1-1s0.4-1,1-1h0.2C38.9,104,39.3,104.4,39.3,105z M42.5,105c0,0.6-0.4,1-1,1h-0.2c-0.6,0-1-0.4-1-1s0.4-1,1-1h0.2C42.1,104,42.5,104.4,42.5,105z M121,105c0-0.4,0.2-0.8,0.6-0.9c0.1-0.1,0.3-0.1,0.4-0.1c0.6,0,1,0.4,1,1v1l-1,0.1C121.4,106,121,105.6,121,105z M123,76.5v0.2c0,0.6-0.4,1-1,1s-1-0.4-1-1v-0.2c0-0.6,0.4-1,1-1S123,76,123,76.5z M123,63.9v0.2c0,0.6-0.4,1-1,1s-1-0.4-1-1v-0.2c0-0.6,0.4-1,1-1S123,63.3,123,63.9z M123,73.4v0.2c0,0.6-0.4,1-1,1s-1-0.4-1-1v-0.2c0-0.6,0.4-1,1-1S123,72.8,123,73.4z M123,82.8V83c0,0.6-0.4,1-1,1s-1-0.4-1-1v-0.2c0-0.6,0.4-1,1-1S123,82.3,123,82.8z M123,67.1v0.2c0,0.6-0.4,1-1,1s-1-0.4-1-1v-0.2c0-0.6,0.4-1,1-1S123,66.5,123,67.1z M123,70.2v0.2c0,0.6-0.4,1-1,1s-1-0.4-1-1v-0.2c0-0.6,0.4-1,1-1S123,69.7,123,70.2z M123,79.7v0.2c0,0.6-0.4,1-1,1s-1-0.4-1-1v-0.2c0-0.6,0.4-1,1-1S123,79.1,123,79.7z M123,95.4v0.2c0,0.6-0.4,1-1,1s-1-0.4-1-1v-0.2c0-0.6,0.4-1,1-1S123,94.9,123,95.4z M123,98.6v0.2c0,0.6-0.4,1-1,1s-1-0.4-1-1v-0.2c0-0.6,0.4-1,1-1S123,98,123,98.6z M123,92.3v0.2c0,0.6-0.4,1-1,1s-1-0.4-1-1v-0.2c0-0.6,0.4-1,1-1S123,91.7,123,92.3z M123,86v0.2c0,0.6-0.4,1-1,1s-1-0.4-1-1V86c0-0.6,0.4-1,1-1S123,85.4,123,86z M123,89.1v0.2c0,0.6-0.4,1-1,1s-1-0.4-1-1v-0.2c0-0.6,0.4-1,1-1S123,88.6,123,89.1z M123,101.7v0.2c0,0.6-0.4,1-1,1s-1-0.4-1-1v-0.2c0-0.6,0.4-1,1-1S123,101.2,123,101.7z M123,35.5v0.2c0,0.6-0.4,1-1,1s-1-0.4-1-1v-0.2c0-0.6,0.4-1,1-1S123,35,123,35.5z M123,41.8V42c0,0.6-0.4,1-1,1s-1-0.4-1-1v-0.2c0-0.6,0.4-1,1-1S123,41.3,123,41.8z M123,32.4v0.2c0,0.6-0.4,1-1,1s-1-0.4-1-1v-0.2c0-0.6,0.4-1,1-1S123,31.8,123,32.4z M123,38.7v0.2c0,0.6-0.4,1-1,1s-1-0.4-1-1v-0.2c0-0.6,0.4-1,1-1S123,38.1,123,38.7z M123,29.2v0.2c0,0.6-0.4,1-1,1s-1-0.4-1-1v-0.2c0-0.6,0.4-1,1-1S123,28.7,123,29.2z M123,26.1v0.2c0,0.6-0.4,1-1,1s-1-0.4-1-1v-0.2c0-0.6,0.4-1,1-1S123,25.5,123,26.1z M123,60.7v0.2c0,0.6-0.4,1-1,1s-1-0.4-1-1v-0.2c0-0.6,0.4-1,1-1S123,60.2,123,60.7z M123,57.6v0.2c0,0.6-0.4,1-1,1s-1-0.4-1-1v-0.2c0-0.6,0.4-1,1-1S123,57,123,57.6z M123,45v0.2c0,0.6-0.4,1-1,1s-1-0.4-1-1V45c0-0.6,0.4-1,1-1S123,44.4,123,45z M123,54.4v0.2c0,0.6-0.4,1-1,1s-1-0.4-1-1v-0.2c0-0.6,0.4-1,1-1S123,53.9,123,54.4z M123,48.1v0.2c0,0.6-0.4,1-1,1s-1-0.4-1-1v-0.2c0-0.6,0.4-1,1-1S123,47.6,123,48.1z M123,51.3v0.2c0,0.6-0.4,1-1,1s-1-0.4-1-1v-0.2c0-0.6,0.4-1,1-1S123,50.7,123,51.3z M121.1,23.4c-0.1-0.1-0.1-0.3-0.1-0.4c0-0.6,0.4-1,1-1h1l0.1,1.1c0,0.6-0.4,1-1,1C121.6,24.1,121.2,23.8,121.1,23.4z M117.7,23c0-0.6,0.4-1,1-1h0.2c0.6,0,1,0.4,1,1s-0.4,1-1,1h-0.2C118.1,24,117.7,23.6,117.7,23z M40.3,23c0-0.6,0.4-1,1-1h0.2c0.6,0,1,0.4,1,1s-0.4,1-1,1h-0.2C40.8,24,40.3,23.6,40.3,23z M43.6,23c0-0.6,0.4-1,1-1h0.2c0.6,0,1,0.4,1,1s-0.4,1-1,1h-0.2C44,24,43.6,23.6,43.6,23z M33.9,23c0-0.6,0.4-1,1-1h0.2c0.6,0,1,0.4,1,1s-0.4,1-1,1h-0.2C34.3,24,33.9,23.6,33.9,23z M46.8,23c0-0.6,0.4-1,1-1H48c0.6,0,1,0.4,1,1s-0.4,1-1,1h-0.2C47.2,24,46.8,23.6,46.8,23z M37.1,23c0-0.6,0.4-1,1-1h0.2c0.6,0,1,0.4,1,1s-0.4,1-1,1h-0.2C37.6,24,37.1,23.6,37.1,23z M50,23c0-0.6,0.4-1,1-1h0.2c0.6,0,1,0.4,1,1s-0.4,1-1,1H51C50.5,24,50,23.6,50,23z M56.5,23c0-0.6,0.4-1,1-1h0.2c0.6,0,1,0.4,1,1s-0.4,1-1,1h-0.2C56.9,24,56.5,23.6,56.5,23z M53.2,23c0-0.6,0.4-1,1-1h0.2c0.6,0,1,0.4,1,1s-0.4,1-1,1h-0.2C53.7,24,53.2,23.6,53.2,23z M11.3,23c0-0.6,0.4-1,1-1h0.2c0.6,0,1,0.4,1,1s-0.4,1-1,1h-0.2C11.8,24,11.3,23.6,11.3,23z M14.6,23c0-0.6,0.4-1,1-1h0.2c0.6,0,1,0.4,1,1s-0.4,1-1,1h-0.2C15,24,14.6,23.6,14.6,23z M17.8,23c0-0.6,0.4-1,1-1H19c0.6,0,1,0.4,1,1s-0.4,1-1,1h-0.2C18.2,24,17.8,23.6,17.8,23z M59.7,23c0-0.6,0.4-1,1-1h0.2c0.6,0,1,0.4,1,1s-0.4,1-1,1h-0.2C60.1,24,59.7,23.6,59.7,23z M8.1,23c0-0.6,0.4-1,1-1h0.2c0.6,0,1,0.4,1,1s-0.4,1-1,1H9.1C8.6,24,8.1,23.6,8.1,23z M24.2,23c0-0.6,0.4-1,1-1h0.2c0.6,0,1,0.4,1,1s-0.4,1-1,1h-0.2C24.7,24,24.2,23.6,24.2,23z M21,23c0-0.6,0.4-1,1-1h0.2c0.6,0,1,0.4,1,1s-0.4,1-1,1H22C21.5,24,21,23.6,21,23z M27.5,23c0-0.6,0.4-1,1-1h0.2c0.6,0,1,0.4,1,1s-0.4,1-1,1h-0.2C27.9,24,27.5,23.6,27.5,23z M30.7,23c0-0.6,0.4-1,1-1h0.2c0.6,0,1,0.4,1,1s-0.4,1-1,1h-0.2C31.1,24,30.7,23.6,30.7,23z M111.2,23c0-0.6,0.4-1,1-1h0.2c0.6,0,1,0.4,1,1s-0.4,1-1,1h-0.2C111.7,24,111.2,23.6,111.2,23z M88.7,23c0-0.6,0.4-1,1-1h0.2c0.6,0,1,0.4,1,1s-0.4,1-1,1h-0.2C89.1,24,88.7,23.6,88.7,23z M101.6,23c0-0.6,0.4-1,1-1h0.2c0.6,0,1,0.4,1,1s-0.4,1-1,1h-0.2C102,24,101.6,23.6,101.6,23z M95.1,23c0-0.6,0.4-1,1-1h0.2c0.6,0,1,0.4,1,1s-0.4,1-1,1h-0.2C95.6,24,95.1,23.6,95.1,23z M91.9,23c0-0.6,0.4-1,1-1h0.2c0.6,0,1,0.4,1,1s-0.4,1-1,1h-0.2C92.3,24,91.9,23.6,91.9,23z M98.3,23c0-0.6,0.4-1,1-1h0.2c0.6,0,1,0.4,1,1s-0.4,1-1,1h-0.2C98.8,24,98.3,23.6,98.3,23z M62.9,23c0-0.6,0.4-1,1-1h0.2c0.6,0,1,0.4,1,1s-0.4,1-1,1h-0.2C63.3,24,62.9,23.6,62.9,23z M104.8,23c0-0.6,0.4-1,1-1h0.2c0.6,0,1,0.4,1,1s-0.4,1-1,1h-0.2C105.2,24,104.8,23.6,104.8,23z M108,23c0-0.6,0.4-1,1-1h0.2c0.6,0,1,0.4,1,1s-0.4,1-1,1H109C108.5,24,108,23.6,108,23z M114.5,23c0-0.6,0.4-1,1-1h0.2c0.6,0,1,0.4,1,1s-0.4,1-1,1h-0.2C114.9,24,114.5,23.6,114.5,23z M69.3,23c0-0.6,0.4-1,1-1h0.2c0.6,0,1,0.4,1,1s-0.4,1-1,1h-0.2C69.8,24,69.3,23.6,69.3,23z M66.1,23c0-0.6,0.4-1,1-1h0.2c0.6,0,1,0.4,1,1s-0.4,1-1,1h-0.2C66.6,24,66.1,23.6,66.1,23z M85.5,23c0-0.6,0.4-1,1-1h0.2c0.6,0,1,0.4,1,1s-0.4,1-1,1h-0.2C85.9,24,85.5,23.6,85.5,23z M72.6,23c0-0.6,0.4-1,1-1h0.2c0.6,0,1,0.4,1,1s-0.4,1-1,1h-0.2C73,24,72.6,23.6,72.6,23z M82.2,23c0-0.6,0.4-1,1-1h0.2c0.6,0,1,0.4,1,1s-0.4,1-1,1h-0.2C82.7,24,82.2,23.6,82.2,23z M79,23c0-0.6,0.4-1,1-1h0.2c0.6,0,1,0.4,1,1s-0.4,1-1,1H80C79.5,24,79,23.6,79,23z M75.8,23c0-0.6,0.4-1,1-1H77c0.6,0,1,0.4,1,1s-0.4,1-1,1h-0.2C76.2,24,75.8,23.6,75.8,23z"></path></g><g transform="scale(8)" id="group_1"><path d="M15.5,1h-15C0.2,1,0,1.2,0,1.5v13C0,14.8,0.2,15,0.5,15h15c0.3,0,0.5-0.2,0.5-0.5v-13C16,1.2,15.8,1,15.5,1z M15,14H1V2h14V14z M14,3H2v10h12V3z M13,12H3V4h10V12z"></path></g><g transform="scale(4)" id="group_2"><path d="M31,3H1C0.4,3,0,3.4,0,4v24c0,0.6,0.4,1,1,1h30c0.6,0,1-0.4,1-1V4C32,3.4,31.6,3,31,3z M30,5.6v1.9C30,7.2,29.8,7,29.5,7S29,7.2,29,7.5v0.2c0,0.3,0.2,0.5,0.5,0.5S30,8,30,7.7v1.9c0-0.3-0.2-0.5-0.5-0.5S29,9.3,29,9.6v0.2c0,0.3,0.2,0.5,0.5,0.5S30,10.1,30,9.8v1.9c0-0.3-0.2-0.5-0.5-0.5S29,11.4,29,11.7v0.2c0,0.3,0.2,0.5,0.5,0.5s0.5-0.2,0.5-0.5v1.9c0-0.3-0.2-0.5-0.5-0.5S29,13.5,29,13.8V14c0,0.3,0.2,0.5,0.5,0.5S30,14.3,30,14v1.9c0-0.3-0.2-0.5-0.5-0.5S29,15.6,29,15.9v0.2c0,0.3,0.2,0.5,0.5,0.5s0.5-0.2,0.5-0.5V18c0-0.3-0.2-0.5-0.5-0.5S29,17.7,29,18v0.2c0,0.3,0.2,0.5,0.5,0.5s0.5-0.2,0.5-0.5v1.9c0-0.3-0.2-0.5-0.5-0.5S29,19.8,29,20.1v0.2c0,0.3,0.2,0.5,0.5,0.5s0.5-0.2,0.5-0.5v1.9c0-0.3-0.2-0.5-0.5-0.5S29,21.9,29,22.2v0.2c0,0.3,0.2,0.5,0.5,0.5s0.5-0.2,0.5-0.5v1.9c0-0.3-0.2-0.5-0.5-0.5S29,24,29,24.3v0.2c0,0.3,0.2,0.5,0.5,0.5s0.5-0.2,0.5-0.5v1.9c0-0.4-0.4-0.6-0.7-0.4c-0.2,0.1-0.3,0.3-0.3,0.5c0,0.3,0.3,0.5,0.5,0.5l0.5-0.1V27h-0.5h-2.1c0.3,0,0.5-0.2,0.5-0.5S27.6,26,27.4,26h-0.2c-0.3,0-0.5,0.2-0.5,0.5s0.2,0.5,0.5,0.5h-2c0.3,0,0.5-0.2,0.5-0.5S25.4,26,25.1,26h-0.2c-0.3,0-0.5,0.2-0.5,0.5s0.2,0.5,0.5,0.5h-2c0.3,0,0.5-0.2,0.5-0.5S23.1,26,22.9,26h-0.2c-0.3,0-0.5,0.2-0.5,0.5s0.2,0.5,0.5,0.5h-2c0.3,0,0.5-0.2,0.5-0.5S20.9,26,20.6,26h-0.2c-0.3,0-0.5,0.2-0.5,0.5s0.2,0.5,0.5,0.5h-2c0.3,0,0.5-0.2,0.5-0.5S18.6,26,18.4,26h-0.2c-0.3,0-0.5,0.2-0.5,0.5s0.2,0.5,0.5,0.5h-2c0.3,0,0.5-0.2,0.5-0.5S16.4,26,16.1,26h-0.2c-0.3,0-0.5,0.2-0.5,0.5s0.2,0.5,0.5,0.5h-2c0.3,0,0.5-0.2,0.5-0.5S14.1,26,13.9,26h-0.2c-0.3,0-0.5,0.2-0.5,0.5s0.2,0.5,0.5,0.5h-2c0.3,0,0.5-0.2,0.5-0.5S11.9,26,11.6,26h-0.2c-0.3,0-0.5,0.2-0.5,0.5s0.2,0.5,0.5,0.5h-2c0.3,0,0.5-0.2,0.5-0.5S9.6,26,9.4,26H9.1c-0.3,0-0.5,0.2-0.5,0.5S8.9,27,9.1,27h-2c0.3,0,0.5-0.2,0.5-0.5S7.4,26,7.1,26H6.9c-0.3,0-0.5,0.2-0.5,0.5S6.6,27,6.9,27h-2c0.3,0,0.5-0.2,0.5-0.5S5.1,26,4.9,26H4.6c-0.3,0-0.5,0.2-0.5,0.5S4.4,27,4.6,27h-2c0.3,0,0.5-0.2,0.5-0.5c0-0.2-0.1-0.4-0.3-0.4C2.8,26,2.6,26,2.5,26C2.2,26,2,26.2,2,26.5v-2C2,24.8,2.2,25,2.5,25S3,24.8,3,24.5v-0.2c0-0.3-0.2-0.5-0.5-0.5S2,24,2,24.3v-1.9c0,0.3,0.2,0.5,0.5,0.5S3,22.7,3,22.4v-0.2c0-0.3-0.2-0.5-0.5-0.5S2,21.9,2,22.2v-1.9c0,0.3,0.2,0.5,0.5,0.5S3,20.6,3,20.3v-0.2c0-0.3-0.2-0.5-0.5-0.5S2,19.8,2,20.1v-1.9c0,0.3,0.2,0.5,0.5,0.5S3,18.5,3,18.2V18c0-0.3-0.2-0.5-0.5-0.5S2,17.7,2,18v-1.9c0,0.3,0.2,0.5,0.5,0.5S3,16.4,3,16.1v-0.2c0-0.3-0.2-0.5-0.5-0.5S2,15.6,2,15.9V14c0,0.3,0.2,0.5,0.5,0.5S3,14.3,3,14v-0.2c0-0.3-0.2-0.5-0.5-0.5S2,13.5,2,13.8v-1.9c0,0.3,0.2,0.5,0.5,0.5S3,12.2,3,11.9v-0.2c0-0.3-0.2-0.5-0.5-0.5S2,11.4,2,11.7V9.8c0,0.3,0.2,0.5,0.5,0.5S3,10.1,3,9.8V9.6c0-0.3-0.2-0.5-0.5-0.5S2,9.3,2,9.6V7.7C2,8,2.2,8.2,2.5,8.2S3,8,3,7.7V7.5C3,7.2,2.8,7,2.5,7S2,7.2,2,7.5V5.6c0,0.3,0.2,0.5,0.5,0.5c0.2,0,0.3-0.1,0.4-0.2C3,5.8,3.1,5.7,3.1,5.5C3.1,5.2,2.9,5,2.6,5h2C4.4,5,4.1,5.2,4.1,5.5S4.4,6,4.6,6h0.2c0.3,0,0.5-0.2,0.5-0.5S5.1,5,4.9,5h2C6.6,5,6.4,5.2,6.4,5.5S6.6,6,6.9,6h0.2c0.3,0,0.5-0.2,0.5-0.5S7.4,5,7.1,5h2C8.9,5,8.6,5.2,8.6,5.5S8.9,6,9.1,6h0.2c0.3,0,0.5-0.2,0.5-0.5S9.6,5,9.4,5h2c-0.3,0-0.5,0.2-0.5,0.5S11.1,6,11.4,6h0.2c0.3,0,0.5-0.2,0.5-0.5S11.9,5,11.6,5h2c-0.3,0-0.5,0.2-0.5,0.5S13.4,6,13.6,6h0.2c0.3,0,0.5-0.2,0.5-0.5S14.1,5,13.9,5h2c-0.3,0-0.5,0.2-0.5,0.5S15.6,6,15.9,6h0.2c0.3,0,0.5-0.2,0.5-0.5S16.4,5,16.1,5h2c-0.3,0-0.5,0.2-0.5,0.5S17.9,6,18.1,6h0.2c0.3,0,0.5-0.2,0.5-0.5S18.6,5,18.4,5h2c-0.3,0-0.5,0.2-0.5,0.5S20.1,6,20.4,6h0.2c0.3,0,0.5-0.2,0.5-0.5S20.9,5,20.6,5h2c-0.3,0-0.5,0.2-0.5,0.5S22.4,6,22.6,6h0.2c0.3,0,0.5-0.2,0.5-0.5S23.1,5,22.9,5h2c-0.3,0-0.5,0.2-0.5,0.5S24.6,6,24.9,6h0.2c0.3,0,0.5-0.2,0.5-0.5S25.4,5,25.1,5h2c-0.3,0-0.5,0.2-0.5,0.5S26.9,6,27.2,6h0.2c0.3,0,0.5-0.2,0.5-0.5S27.6,5,27.4,5h2C29.1,5,29,5.2,29,5.5c0,0.1,0,0.2,0.1,0.2c0.1,0.2,0.3,0.4,0.5,0.4C29.8,6.1,30,5.9,30,5.6L29.9,5H30V5.6z M3.5,25.5h25v-19h-25V25.5z M4.5,7.5h23v17h-23V7.5z"></path></g></svg>