<?xml version="1.0" encoding="utf-8"?>
<!-- Generator: Adobe Illustrator 18.1.1, SVG Export Plug-In . SVG Version: 6.00 Build 0)  -->
<svg version="1.1" id="Layer_1" xmlns="http://www.w3.org/2000/svg" xmlns:xlink="http://www.w3.org/1999/xlink" x="0px" y="0px"
	 viewBox="0 0 32 32" enable-background="new 0 0 32 32" xml:space="preserve">
<path d="M31,3H1C0.4,3,0,3.4,0,4v24c0,0.6,0.4,1,1,1h30c0.6,0,1-0.4,1-1V4C32,3.4,31.6,3,31,3z M30,5.6v1.9C30,7.2,29.8,7,29.5,7
	S29,7.2,29,7.5v0.2c0,0.3,0.2,0.5,0.5,0.5S30,8,30,7.7v1.9c0-0.3-0.2-0.5-0.5-0.5S29,9.3,29,9.6v0.2c0,0.3,0.2,0.5,0.5,0.5
	S30,10.1,30,9.8v1.9c0-0.3-0.2-0.5-0.5-0.5S29,11.4,29,11.7v0.2c0,0.3,0.2,0.5,0.5,0.5s0.5-0.2,0.5-0.5v1.9c0-0.3-0.2-0.5-0.5-0.5
	S29,13.5,29,13.8V14c0,0.3,0.2,0.5,0.5,0.5S30,14.3,30,14v1.9c0-0.3-0.2-0.5-0.5-0.5S29,15.6,29,15.9v0.2c0,0.3,0.2,0.5,0.5,0.5
	s0.5-0.2,0.5-0.5V18c0-0.3-0.2-0.5-0.5-0.5S29,17.7,29,18v0.2c0,0.3,0.2,0.5,0.5,0.5s0.5-0.2,0.5-0.5v1.9c0-0.3-0.2-0.5-0.5-0.5
	S29,19.8,29,20.1v0.2c0,0.3,0.2,0.5,0.5,0.5s0.5-0.2,0.5-0.5v1.9c0-0.3-0.2-0.5-0.5-0.5S29,21.9,29,22.2v0.2c0,0.3,0.2,0.5,0.5,0.5
	s0.5-0.2,0.5-0.5v1.9c0-0.3-0.2-0.5-0.5-0.5S29,24,29,24.3v0.2c0,0.3,0.2,0.5,0.5,0.5s0.5-0.2,0.5-0.5v1.9c0-0.4-0.4-0.6-0.7-0.4
	c-0.2,0.1-0.3,0.3-0.3,0.5c0,0.3,0.3,0.5,0.5,0.5l0.5-0.1V27h-0.5h-2.1c0.3,0,0.5-0.2,0.5-0.5S27.6,26,27.4,26h-0.2
	c-0.3,0-0.5,0.2-0.5,0.5s0.2,0.5,0.5,0.5h-2c0.3,0,0.5-0.2,0.5-0.5S25.4,26,25.1,26h-0.2c-0.3,0-0.5,0.2-0.5,0.5s0.2,0.5,0.5,0.5h-2
	c0.3,0,0.5-0.2,0.5-0.5S23.1,26,22.9,26h-0.2c-0.3,0-0.5,0.2-0.5,0.5s0.2,0.5,0.5,0.5h-2c0.3,0,0.5-0.2,0.5-0.5S20.9,26,20.6,26
	h-0.2c-0.3,0-0.5,0.2-0.5,0.5s0.2,0.5,0.5,0.5h-2c0.3,0,0.5-0.2,0.5-0.5S18.6,26,18.4,26h-0.2c-0.3,0-0.5,0.2-0.5,0.5
	s0.2,0.5,0.5,0.5h-2c0.3,0,0.5-0.2,0.5-0.5S16.4,26,16.1,26h-0.2c-0.3,0-0.5,0.2-0.5,0.5s0.2,0.5,0.5,0.5h-2c0.3,0,0.5-0.2,0.5-0.5
	S14.1,26,13.9,26h-0.2c-0.3,0-0.5,0.2-0.5,0.5s0.2,0.5,0.5,0.5h-2c0.3,0,0.5-0.2,0.5-0.5S11.9,26,11.6,26h-0.2
	c-0.3,0-0.5,0.2-0.5,0.5s0.2,0.5,0.5,0.5h-2c0.3,0,0.5-0.2,0.5-0.5S9.6,26,9.4,26H9.1c-0.3,0-0.5,0.2-0.5,0.5S8.9,27,9.1,27h-2
	c0.3,0,0.5-0.2,0.5-0.5S7.4,26,7.1,26H6.9c-0.3,0-0.5,0.2-0.5,0.5S6.6,27,6.9,27h-2c0.3,0,0.5-0.2,0.5-0.5S5.1,26,4.9,26H4.6
	c-0.3,0-0.5,0.2-0.5,0.5S4.4,27,4.6,27h-2c0.3,0,0.5-0.2,0.5-0.5c0-0.2-0.1-0.4-0.3-0.4C2.8,26,2.6,26,2.5,26C2.2,26,2,26.2,2,26.5
	v-2C2,24.8,2.2,25,2.5,25S3,24.8,3,24.5v-0.2c0-0.3-0.2-0.5-0.5-0.5S2,24,2,24.3v-1.9c0,0.3,0.2,0.5,0.5,0.5S3,22.7,3,22.4v-0.2
	c0-0.3-0.2-0.5-0.5-0.5S2,21.9,2,22.2v-1.9c0,0.3,0.2,0.5,0.5,0.5S3,20.6,3,20.3v-0.2c0-0.3-0.2-0.5-0.5-0.5S2,19.8,2,20.1v-1.9
	c0,0.3,0.2,0.5,0.5,0.5S3,18.5,3,18.2V18c0-0.3-0.2-0.5-0.5-0.5S2,17.7,2,18v-1.9c0,0.3,0.2,0.5,0.5,0.5S3,16.4,3,16.1v-0.2
	c0-0.3-0.2-0.5-0.5-0.5S2,15.6,2,15.9V14c0,0.3,0.2,0.5,0.5,0.5S3,14.3,3,14v-0.2c0-0.3-0.2-0.5-0.5-0.5S2,13.5,2,13.8v-1.9
	c0,0.3,0.2,0.5,0.5,0.5S3,12.2,3,11.9v-0.2c0-0.3-0.2-0.5-0.5-0.5S2,11.4,2,11.7V9.8c0,0.3,0.2,0.5,0.5,0.5S3,10.1,3,9.8V9.6
	c0-0.3-0.2-0.5-0.5-0.5S2,9.3,2,9.6V7.7C2,8,2.2,8.2,2.5,8.2S3,8,3,7.7V7.5C3,7.2,2.8,7,2.5,7S2,7.2,2,7.5V5.6
	c0,0.3,0.2,0.5,0.5,0.5c0.2,0,0.3-0.1,0.4-0.2C3,5.8,3.1,5.7,3.1,5.5C3.1,5.2,2.9,5,2.6,5h2C4.4,5,4.1,5.2,4.1,5.5S4.4,6,4.6,6h0.2
	c0.3,0,0.5-0.2,0.5-0.5S5.1,5,4.9,5h2C6.6,5,6.4,5.2,6.4,5.5S6.6,6,6.9,6h0.2c0.3,0,0.5-0.2,0.5-0.5S7.4,5,7.1,5h2
	C8.9,5,8.6,5.2,8.6,5.5S8.9,6,9.1,6h0.2c0.3,0,0.5-0.2,0.5-0.5S9.6,5,9.4,5h2c-0.3,0-0.5,0.2-0.5,0.5S11.1,6,11.4,6h0.2
	c0.3,0,0.5-0.2,0.5-0.5S11.9,5,11.6,5h2c-0.3,0-0.5,0.2-0.5,0.5S13.4,6,13.6,6h0.2c0.3,0,0.5-0.2,0.5-0.5S14.1,5,13.9,5h2
	c-0.3,0-0.5,0.2-0.5,0.5S15.6,6,15.9,6h0.2c0.3,0,0.5-0.2,0.5-0.5S16.4,5,16.1,5h2c-0.3,0-0.5,0.2-0.5,0.5S17.9,6,18.1,6h0.2
	c0.3,0,0.5-0.2,0.5-0.5S18.6,5,18.4,5h2c-0.3,0-0.5,0.2-0.5,0.5S20.1,6,20.4,6h0.2c0.3,0,0.5-0.2,0.5-0.5S20.9,5,20.6,5h2
	c-0.3,0-0.5,0.2-0.5,0.5S22.4,6,22.6,6h0.2c0.3,0,0.5-0.2,0.5-0.5S23.1,5,22.9,5h2c-0.3,0-0.5,0.2-0.5,0.5S24.6,6,24.9,6h0.2
	c0.3,0,0.5-0.2,0.5-0.5S25.4,5,25.1,5h2c-0.3,0-0.5,0.2-0.5,0.5S26.9,6,27.2,6h0.2c0.3,0,0.5-0.2,0.5-0.5S27.6,5,27.4,5h2
	C29.1,5,29,5.2,29,5.5c0,0.1,0,0.2,0.1,0.2c0.1,0.2,0.3,0.4,0.5,0.4C29.8,6.1,30,5.9,30,5.6L29.9,5H30V5.6z M3.5,25.5h25v-19h-25
	V25.5z M4.5,7.5h23v17h-23V7.5z"/>
</svg>
